<?xml version="1.0" encoding="UTF-8" standalone="no"?>
<!DOCTYPE svg PUBLIC "-//W3C//DTD SVG 1.1//EN" "http://www.w3.org/Graphics/SVG/1.1/DTD/svg11.dtd">
<svg width="100%" height="100%" viewBox="0 0 1150 628" version="1.1" xmlns="http://www.w3.org/2000/svg" xmlns:xlink="http://www.w3.org/1999/xlink" xml:space="preserve" xmlns:serif="http://www.serif.com/" style="fill-rule:evenodd;clip-rule:evenodd;stroke-linejoin:round;stroke-miterlimit:2;">
    <g transform="matrix(1.69238,0,0,1.69238,924.723,588.863)">
        <path d="M0,-328.574C-5.596,-328.574 -10.132,-333.11 -10.132,-338.704C-10.132,-344.3 -5.596,-348.836 0,-348.836C5.594,-348.836 10.131,-344.3 10.131,-338.704C10.131,-333.11 5.594,-328.574 0,-328.574M-430.182,-85.673L-482.939,-85.673L-484.311,-85.673C-513.444,-85.673 -537.279,-61.837 -537.279,-32.705C-537.279,-3.573 -513.444,20.262 -484.311,20.262L-26.614,20.262C20.561,20.262 59.156,-18.333 59.156,-65.507C59.156,-112.681 20.561,-151.277 -26.613,-151.277L-26.614,-151.277C-46.561,-151.277 -62.879,-167.596 -62.879,-187.542C-62.879,-207.489 -46.56,-223.808 -26.613,-223.808L17.032,-223.808C37.77,-223.808 54.736,-240.775 54.736,-261.512C54.736,-282.25 37.77,-299.216 17.032,-299.216L-38.159,-299.216C-46.232,-299.216 -52.838,-305.823 -52.838,-313.895C-52.838,-321.969 -46.232,-328.574 -38.159,-328.574L-28.43,-328.574C-22.858,-328.574 -18.3,-333.133 -18.3,-338.704L-18.3,-338.705C-18.3,-344.277 -22.858,-348.836 -28.43,-348.836L-64.894,-348.836L-92.271,-348.836C-105.716,-348.836 -107.213,-332.952 -141.175,-332.952L-239.029,-332.952C-246.301,-332.952 -252.249,-327.002 -252.249,-319.733C-252.249,-312.463 -246.3,-306.513 -239.029,-306.513L-226.335,-306.513C-215.8,-306.513 -207.181,-297.893 -207.181,-287.36C-207.181,-276.825 -215.8,-268.205 -226.335,-268.205L-245.439,-268.205C-297.031,-268.205 -304.318,-254.723 -313.354,-227.907C-322.39,-201.091 -369.318,-198.929 -369.318,-198.929L-433.486,-198.929C-449.361,-198.929 -462.351,-185.94 -462.351,-170.064C-462.351,-154.188 -449.362,-141.199 -433.486,-141.199L-430.182,-141.199C-414.912,-141.199 -402.418,-128.705 -402.418,-113.436C-402.418,-98.166 -414.912,-85.673 -430.182,-85.673" style="fill:rgb(226,232,245);"/>
    </g>
    <g>
        <g transform="matrix(1.64112,0,0,1.64112,119.814,-507.779)">
            <rect x="238.383" y="347.127" width="45.131" height="56.974" style="fill:rgb(236,236,236);"/>
        </g>
        <g transform="matrix(1.64112,0,0,1.64112,119.814,-415.977)">
            <rect x="258.104" y="346.885" width="6.259" height="1.52" style="fill:rgb(225,225,225);"/>
        </g>
        <g transform="matrix(1.64112,0,0,1.64112,550.435,119.716)">
            <path d="M0,-15.615L-8.314,-14.399L-11.416,-6.591L-6.207,0L2.105,-1.216L5.209,-9.024L0,-15.615Z" style="fill:rgb(225,225,225);fill-rule:nonzero;"/>
        </g>
        <g transform="matrix(1.64112,0,0,1.64112,556.812,127.999)">
            <path d="M0,-15.615L-8.313,-14.399L-11.417,-6.592L-6.207,0L2.106,-1.217L5.21,-9.024L0,-15.615Z" style="fill:rgb(250,250,250);fill-rule:nonzero;"/>
        </g>
        <g transform="matrix(1.64112,0,0,1.64112,119.814,-601.685)">
            <rect x="258.987" y="403.574" width="6.26" height="1.301" style="fill:rgb(225,225,225);"/>
        </g>
        <g transform="matrix(-1.64112,0,0,1.64112,1187.48,-417.848)">
            <rect x="309.959" y="315.405" width="30.655" height="65.62" style="fill:rgb(245,245,245);"/>
        </g>
        <g transform="matrix(1.64112,0,0,1.64112,119.814,-191.06)">
            <rect x="341.887" y="247.418" width="37.669" height="63.403" style="fill:rgb(245,245,245);"/>
        </g>
        <g transform="matrix(1.64112,0,0,1.64112,750.235,0.256892)">
            <path d="M0,59.502L35.769,59.502L35.769,1.292L37.041,1.292L37.041,59.502L70.146,59.502L70.146,0L0,0L0,59.502Z" style="fill:rgb(245,245,245);fill-rule:nonzero;"/>
        </g>
        <g transform="matrix(-1.64112,0,0,1.64112,1187.48,-191.057)">
            <rect x="309.959" y="247.417" width="30.655" height="63.403" style="fill:rgb(245,245,245);"/>
        </g>
        <g transform="matrix(1.64112,0,0,1.64112,119.814,-191.06)">
            <rect x="421.181" y="247.418" width="33.104" height="63.403" style="fill:rgb(245,245,245);"/>
        </g>
        <g transform="matrix(-1.64112,0,0,1.64112,1303.79,-417.848)">
            <rect x="341.887" y="315.405" width="37.669" height="65.62" style="fill:rgb(245,245,245);"/>
        </g>
        <g transform="matrix(1.64112,0,0,1.64112,119.814,-417.848)">
            <rect x="421.181" y="315.405" width="33.104" height="65.62" style="fill:rgb(245,245,245);"/>
        </g>
        <g transform="matrix(-1.64112,0,0,1.64112,1187.48,10.4816)">
            <rect x="309.959" y="189.149" width="30.655" height="57.134" style="fill:rgb(245,245,245);"/>
        </g>
        <g transform="matrix(1.64112,0,0,1.64112,678.803,0.256892)">
            <path d="M0,59.502L0,1.292L1.273,1.292L1.273,59.502L38.942,59.502L38.942,0L-30.655,0L-30.655,59.502L0,59.502Z" style="fill:rgb(245,245,245);fill-rule:nonzero;"/>
        </g>
        <g transform="matrix(1.64112,0,0,1.64112,119.814,10.4816)">
            <rect x="341.887" y="189.149" width="37.669" height="57.134" style="fill:rgb(245,245,245);"/>
        </g>
        <g transform="matrix(1.64112,0,0,1.64112,119.814,10.4816)">
            <rect x="421.181" y="189.149" width="33.104" height="57.134" style="fill:rgb(245,245,245);"/>
        </g>
        <g transform="matrix(-1.64112,0,0,1.64112,1439.36,-417.848)">
            <rect x="384.14" y="315.405" width="35.769" height="65.62" style="fill:rgb(245,245,245);"/>
        </g>
        <g transform="matrix(-1.64112,0,0,1.64112,1439.36,10.4816)">
            <rect x="384.14" y="189.149" width="35.769" height="57.134" style="fill:rgb(245,245,245);"/>
        </g>
        <g transform="matrix(1.64112,0,0,1.64112,119.814,-191.06)">
            <rect x="384.14" y="247.418" width="35.769" height="63.403" style="fill:rgb(245,245,245);"/>
        </g>
        <g transform="matrix(-1.64112,0,0,1.64112,409.083,-417.848)">
            <rect x="72.804" y="315.405" width="30.655" height="65.62" style="fill:rgb(245,245,245);"/>
        </g>
        <g transform="matrix(1.64112,0,0,1.64112,119.814,-191.06)">
            <rect x="104.732" y="247.418" width="37.668" height="63.403" style="fill:rgb(245,245,245);"/>
        </g>
        <g transform="matrix(-1.64112,0,0,1.64112,409.083,-191.057)">
            <rect x="72.804" y="247.417" width="30.655" height="63.403" style="fill:rgb(245,245,245);"/>
        </g>
        <g transform="matrix(1.64112,0,0,1.64112,119.814,-191.06)">
            <rect x="184.026" y="247.418" width="33.104" height="63.403" style="fill:rgb(245,245,245);"/>
        </g>
        <g transform="matrix(-1.64112,0,0,1.64112,525.391,-417.848)">
            <rect x="104.733" y="315.405" width="37.668" height="65.62" style="fill:rgb(245,245,245);"/>
        </g>
        <g transform="matrix(1.64112,0,0,1.64112,119.814,-417.848)">
            <rect x="184.026" y="315.405" width="33.104" height="65.62" style="fill:rgb(245,245,245);"/>
        </g>
        <g transform="matrix(-1.64112,0,0,1.64112,409.083,10.4816)">
            <rect x="72.804" y="189.149" width="30.655" height="57.134" style="fill:rgb(245,245,245);"/>
        </g>
        <g transform="matrix(1.64112,0,0,1.64112,119.814,10.4816)">
            <rect x="104.732" y="189.149" width="37.668" height="57.134" style="fill:rgb(245,245,245);"/>
        </g>
        <g transform="matrix(1.64112,0,0,1.64112,119.814,10.4816)">
            <rect x="184.026" y="189.149" width="33.104" height="57.134" style="fill:rgb(245,245,245);"/>
        </g>
        <g transform="matrix(-1.64112,0,0,1.64112,660.953,-417.848)">
            <rect x="146.984" y="315.405" width="35.769" height="65.62" style="fill:rgb(245,245,245);"/>
        </g>
        <g transform="matrix(-1.64112,0,0,1.64112,660.953,10.4816)">
            <rect x="146.984" y="189.149" width="35.769" height="57.134" style="fill:rgb(245,245,245);"/>
        </g>
        <g transform="matrix(1.64112,0,0,1.64112,119.814,-191.06)">
            <rect x="146.985" y="247.418" width="35.769" height="63.403" style="fill:rgb(245,245,245);"/>
        </g>
        <g transform="matrix(1.64112,0,0,1.64112,747.174,628.924)">
            <path d="M0,-29.389L0,0L90.38,0L90.38,-29.389L0,-29.389Z" style="fill:rgb(236,236,236);fill-rule:nonzero;"/>
        </g>
        <g transform="matrix(1.64112,0,0,1.64112,740.951,580.693)">
            <path d="M0,-8.217L0,0L97.332,0L97.332,-8.217L46.77,-8.217L0,-8.217Z" style="fill:rgb(225,225,225);fill-rule:nonzero;"/>
        </g>
        <g transform="matrix(1.64112,0,0,1.64112,820.818,567.209)">
            <path d="M0,37.605L45.506,37.605L45.506,8.216L48.666,8.216L48.666,0L-1.896,0L-1.896,7.456L0,37.605Z" style="fill:rgb(225,225,225);fill-rule:nonzero;"/>
        </g>
        <g transform="matrix(1.64112,0,0,1.64112,119.814,459.122)">
            <rect x="394.916" y="78.817" width="18.328" height="4.424" style="fill:rgb(225,225,225);"/>
        </g>
        <g transform="matrix(-1.64112,0,0,1.64112,1446.9,499.866)">
            <rect x="392.556" y="63.944" width="23.535" height="9.343" style="fill:rgb(245,245,245);"/>
        </g>
        <g transform="matrix(-0.0194562,-1.64101,-1.64101,0.0194562,823.186,539.978)">
            <path d="M16.139,23.8L27.189,23.8L23.411,-14.871L12.47,-15.949L16.139,23.8Z" style="fill:rgb(236,236,236);fill-rule:nonzero;"/>
        </g>
        <g transform="matrix(-0.140037,1.63514,1.63514,0.140037,822.236,487.987)">
            <rect x="11.026" y="-14.184" width="1.995" height="24.304" style="fill:rgb(225,225,225);"/>
        </g>
        <g transform="matrix(-0.00222797,-1.64112,-1.64112,0.00222797,815.778,522.277)">
            <path d="M15.594,24.07L26.643,24.07L22.862,-14.601L12.988,-15.573L15.594,24.07Z" style="fill:rgb(225,225,225);fill-rule:nonzero;"/>
        </g>
        <g transform="matrix(-0.00418259,1.64112,1.64112,0.00418259,815.594,458.599)">
            <path d="M13.756,-23.956L21.212,-23.956L23.895,13.74L17.017,13.093L13.756,-23.956Z" style="fill:white;fill-rule:nonzero;"/>
        </g>
        <g transform="matrix(1.64112,0,0,1.64112,833.343,485.561)">
            <path d="M0,3.487C-0.004,3.522 -0.49,3.508 -1.367,3.451C-2.343,3.374 -3.586,3.276 -5.072,3.159C-8.199,2.89 -12.514,2.484 -17.276,2.003C-22.04,1.521 -26.35,1.056 -29.468,0.694C-30.947,0.511 -32.186,0.359 -33.157,0.238C-34.028,0.119 -34.508,0.036 -34.505,0.001C-34.502,-0.035 -34.017,-0.021 -33.141,0.037C-32.165,0.113 -30.923,0.211 -29.437,0.328C-26.311,0.596 -21.993,1.003 -17.228,1.484C-12.463,1.966 -8.152,2.43 -5.035,2.793C-3.556,2.975 -2.317,3.129 -1.346,3.249C-0.476,3.368 0.003,3.451 0,3.487" style="fill:rgb(245,245,245);fill-rule:nonzero;"/>
        </g>
        <g transform="matrix(1.64112,0,0,1.64112,833.213,488.839)">
            <path d="M0,2.424C-0.002,2.459 -0.492,2.46 -1.377,2.43C-2.361,2.383 -3.616,2.323 -5.117,2.252C-8.273,2.08 -12.632,1.806 -17.442,1.472C-22.255,1.137 -26.609,0.805 -29.758,0.538C-31.254,0.402 -32.505,0.286 -33.485,0.196C-34.364,0.104 -34.85,0.036 -34.847,0C-34.844,-0.036 -34.354,-0.036 -33.469,-0.006C-32.484,0.041 -31.229,0.1 -29.729,0.171C-26.572,0.344 -22.214,0.617 -17.401,0.952C-12.592,1.287 -8.238,1.619 -5.089,1.885C-3.593,2.023 -2.343,2.138 -1.361,2.228C-0.482,2.32 0.003,2.388 0,2.424" style="fill:rgb(245,245,245);fill-rule:nonzero;"/>
        </g>
        <g transform="matrix(-0.0213867,-1.64098,-1.64098,0.0213867,824.751,555.662)">
            <path d="M15.546,24.298L26.596,24.298L22.809,-14.372L12.933,-15.345L15.546,24.298Z" style="fill:rgb(225,225,225);fill-rule:nonzero;"/>
        </g>
        <g transform="matrix(1.63987,-0.0640669,-0.0640669,-1.63987,791.896,531.028)">
            <path d="M-0.213,-0.004C-0.358,0 -0.473,2.443 -0.473,5.451C-0.474,8.462 -0.356,10.906 -0.213,10.908C-0.069,10.913 0.048,8.47 0.048,5.452C0.047,2.435 -0.069,-0.008 -0.213,-0.004" style="fill:rgb(245,245,245);fill-rule:nonzero;"/>
        </g>
        <g transform="matrix(-1.64074,0.0356255,0.0356255,1.64074,794.518,531.187)">
            <path d="M0.118,-10.871C-0.026,-10.871 -0.142,-8.437 -0.142,-5.435C-0.142,-2.433 -0.026,0 0.118,0C0.261,0.001 0.378,-2.433 0.379,-5.436C0.378,-8.437 0.262,-10.871 0.118,-10.871" style="fill:rgb(245,245,245);fill-rule:nonzero;"/>
        </g>
        <g transform="matrix(1.63554,0.135283,0.135283,-1.63554,799.9,519.886)">
            <path d="M-0.037,-0.891C6.749,-1.077 14.694,-0.848 21.581,-0.891" style="fill:white;fill-rule:nonzero;"/>
        </g>
        <g transform="matrix(1.64112,0,0,1.64112,835.075,521.337)">
            <path d="M0,1.783C-0.007,1.855 -1.217,1.81 -3.17,1.703C-5.122,1.594 -7.819,1.426 -10.796,1.205C-13.773,0.983 -16.467,0.734 -18.411,0.503C-20.356,0.273 -21.552,0.07 -21.544,0.001C-21.536,-0.072 -20.327,0.001 -18.377,0.136C-16.271,0.288 -13.653,0.476 -10.757,0.685C-7.781,0.907 -5.088,1.132 -3.141,1.336C-1.193,1.538 0.006,1.713 0,1.783" style="fill:rgb(245,245,245);fill-rule:nonzero;"/>
        </g>
        <g transform="matrix(1.63917,-0.0800444,-0.0800444,-1.63917,840.112,533.557)">
            <path d="M-0.242,-0.006C-0.386,-0.006 -0.502,2.211 -0.502,4.946C-0.503,7.68 -0.386,9.897 -0.242,9.897C-0.098,9.897 0.019,7.681 0.019,4.945C0.018,2.212 -0.097,-0.005 -0.242,-0.006" style="fill:rgb(245,245,245);fill-rule:nonzero;"/>
        </g>
        <g transform="matrix(1.63321,-0.16093,-0.16093,-1.63321,844.423,533.672)">
            <path d="M-0.488,-0.024C-0.632,-0.025 -0.749,2.203 -0.747,4.953C-0.748,7.702 -0.631,9.93 -0.488,9.929C-0.343,9.93 -0.227,7.702 -0.228,4.953C-0.227,2.204 -0.343,-0.024 -0.488,-0.024" style="fill:rgb(245,245,245);fill-rule:nonzero;"/>
        </g>
        <g transform="matrix(1.63879,0.0875241,0.0875241,-1.63879,809.186,524.921)">
            <path d="M-0.008,-0.292C4.27,-0.355 7.525,-0.395 10.924,-0.292" style="fill:white;fill-rule:nonzero;"/>
        </g>
        <g transform="matrix(0.0875241,-1.63879,-1.63879,-0.0875241,819.053,516.95)">
            <path d="M-5.462,-5.179C-5.606,-5.183 -5.723,-2.737 -5.723,0.285C-5.723,3.307 -5.607,5.756 -5.462,5.753C-5.318,5.749 -5.202,3.304 -5.201,0.289C-5.202,-2.724 -5.318,-5.173 -5.462,-5.179" style="fill:rgb(245,245,245);fill-rule:nonzero;"/>
        </g>
        <g transform="matrix(-0.108131,-1.63756,-1.63756,0.108131,831.946,588.37)">
            <path d="M15.285,25.334L26.334,25.334L22.55,-13.337L12.675,-14.309L15.285,25.334Z" style="fill:rgb(236,236,236);fill-rule:nonzero;"/>
        </g>
        <g transform="matrix(1.64096,-0.0234912,-0.0234912,-1.64096,791.429,564.244)">
            <path d="M-0.056,0.266L37.739,0.266L36.786,7.143L-0.652,8.372L-0.056,0.266Z" style="fill:white;fill-rule:nonzero;"/>
        </g>
        <g transform="matrix(-0.0530268,-1.64027,-1.64027,0.0530268,831.845,572.382)">
            <path d="M15.453,24.68L26.502,24.68L22.722,-13.99L12.846,-14.962L15.453,24.68Z" style="fill:rgb(245,245,245);fill-rule:nonzero;"/>
        </g>
        <g transform="matrix(-0.107035,1.63763,1.63763,0.107035,828.031,521.511)">
            <rect x="11.065" y="-13.938" width="1.991" height="24.304" style="fill:rgb(225,225,225);"/>
        </g>
        <g transform="matrix(1.64112,0,0,1.64112,852.261,556.534)">
            <path d="M0,-0.147C0,-0.111 -0.528,-0.075 -1.483,-0.04C-2.535,-0.014 -3.895,0.019 -5.527,0.059C-8.941,0.12 -13.656,0.166 -18.864,0.187C-24.074,0.207 -28.79,0.197 -32.205,0.163C-33.838,0.135 -35.197,0.113 -36.249,0.096C-37.204,0.068 -37.732,0.037 -37.733,0C-37.733,-0.036 -37.207,-0.072 -36.253,-0.107C-35.201,-0.132 -33.843,-0.166 -32.21,-0.206C-28.796,-0.266 -24.079,-0.313 -18.866,-0.334C-13.656,-0.354 -8.938,-0.343 -5.524,-0.309C-3.892,-0.283 -2.532,-0.26 -1.481,-0.243C-0.526,-0.215 0.001,-0.183 0,-0.147" style="fill:rgb(236,236,236);fill-rule:nonzero;"/>
        </g>
        <g transform="matrix(1.64112,0,0,1.64112,852.99,558.947)">
            <path d="M0,0.524C-0.001,0.56 -0.533,0.586 -1.495,0.605C-2.554,0.612 -3.923,0.621 -5.568,0.631C-9.007,0.631 -13.756,0.594 -19,0.522C-24.246,0.45 -28.995,0.355 -32.432,0.261C-34.077,0.205 -35.445,0.158 -36.502,0.122C-37.464,0.078 -37.995,0.037 -37.995,0.001C-37.995,-0.036 -37.464,-0.063 -36.502,-0.08C-35.444,-0.087 -34.076,-0.096 -32.431,-0.107C-28.992,-0.107 -24.241,-0.071 -18.993,0.002C-13.747,0.074 -8.997,0.169 -5.56,0.263C-3.915,0.319 -2.547,0.366 -1.49,0.402C-0.529,0.447 0.001,0.488 0,0.524" style="fill:rgb(236,236,236);fill-rule:nonzero;"/>
        </g>
        <g transform="matrix(1.64112,0,0,1.64112,231.357,575.445)">
            <path d="M0,-91.577C-5.292,-90.725 -7.658,-84.223 -7.195,-78.883C-6.732,-73.543 -4.538,-68.322 -5.125,-62.995C-5.871,-56.229 -10.983,-50.511 -11.579,-43.73C-12.281,-35.734 -6.627,-28.641 -4.938,-20.794C-4.117,-16.975 -4.232,-12.937 -2.81,-9.301C-0.413,-3.167 6.617,0.772 13.1,-0.386C19.583,-1.544 24.813,-7.673 24.939,-14.257C25.057,-20.397 21.268,-26.181 21.728,-32.304C22.068,-36.831 24.721,-41.12 24.153,-45.623C23.478,-50.981 18.512,-54.786 16.76,-59.895C15.008,-65.006 16.691,-70.637 16.086,-76.006C15.001,-85.636 9.661,-92.349 0,-91.577" style="fill:rgb(255,79,91);fill-rule:nonzero;"/>
        </g>
        <g transform="matrix(1.64112,0,0,1.64112,187.009,575.842)">
            <path d="M0,-45.187C-0.9,-36.263 3.046,-25.764 7.635,-18.058C12.225,-10.352 19.338,-4.178 27.613,-0.719C28.546,-0.329 29.708,0 30.493,-0.637C31.136,-1.161 31.216,-2.097 31.222,-2.926C31.285,-12.317 28.229,-21.703 22.649,-29.255C17.068,-36.81 8.995,-42.488 0,-45.187" style="fill:rgb(255,79,91);fill-rule:nonzero;"/>
        </g>
        <g transform="matrix(1.64112,0,0,1.64112,119.814,-95.4825)">
            <g opacity="0.1">
                <g transform="matrix(1,0,0,1,40.9445,409.064)">
                    <path d="M0,-45.187C-0.9,-36.263 3.046,-25.764 7.635,-18.058C12.225,-10.352 19.338,-4.178 27.613,-0.719C28.546,-0.329 29.708,0 30.493,-0.637C31.136,-1.161 31.216,-2.097 31.222,-2.926C31.285,-12.317 28.229,-21.703 22.649,-29.255C17.068,-36.81 8.995,-42.488 0,-45.187" style="fill-rule:nonzero;"/>
                </g>
            </g>
        </g>
        <g transform="matrix(1.64112,0,0,1.64112,250.805,528.086)">
            <path d="M0,47.04C-0.016,47.047 -0.103,46.875 -0.254,46.543C-0.422,46.158 -0.633,45.675 -0.891,45.081C-1.427,43.807 -2.229,41.973 -3.25,39.721C-5.287,35.216 -8.308,29.083 -12.11,22.567C-15.921,16.056 -19.783,10.414 -22.708,6.428C-24.168,4.433 -25.373,2.834 -26.221,1.741C-26.611,1.226 -26.928,0.806 -27.182,0.47C-27.397,0.175 -27.504,0.015 -27.49,0.004C-27.477,-0.007 -27.343,0.131 -27.103,0.404C-26.83,0.725 -26.487,1.126 -26.067,1.618C-25.17,2.675 -23.921,4.242 -22.42,6.214C-19.416,10.152 -15.495,15.78 -11.672,22.312C-7.859,28.847 -4.88,35.023 -2.922,39.574C-1.941,41.85 -1.188,43.708 -0.708,45.009C-0.485,45.615 -0.304,46.11 -0.159,46.506C-0.039,46.851 0.017,47.034 0,47.04" style="fill:rgb(26,46,53);fill-rule:nonzero;"/>
        </g>
        <g transform="matrix(1.64112,0,0,1.64112,241.377,604.102)">
            <path d="M0,-84.35C0.018,-84.351 0.05,-84.056 0.097,-83.494C0.141,-82.888 0.2,-82.069 0.275,-81.037C0.415,-78.854 0.613,-75.777 0.856,-71.995C1.338,-64.359 2.016,-53.811 2.834,-42.167C3.655,-30.52 4.462,-19.981 5.054,-12.353C5.343,-8.575 5.578,-5.499 5.745,-3.319C5.815,-2.287 5.872,-1.466 5.913,-0.861C5.945,-0.298 5.955,-0.002 5.937,0C5.919,0.001 5.876,-0.292 5.811,-0.851C5.746,-1.455 5.659,-2.273 5.549,-3.301C5.343,-5.48 5.053,-8.549 4.697,-12.323C4.013,-19.945 3.149,-30.481 2.329,-42.131C1.51,-53.779 0.889,-64.331 0.499,-71.974C0.322,-75.76 0.18,-78.841 0.078,-81.026C0.042,-82.061 0.015,-82.882 -0.006,-83.489C-0.019,-84.052 -0.018,-84.349 0,-84.35" style="fill:rgb(26,46,53);fill-rule:nonzero;"/>
        </g>
        <g transform="matrix(1.64112,0,0,1.64112,227.906,628.932)">
            <path d="M0,-27.135L22.349,-27.135L22.349,-10.728C22.349,-4.802 17.545,0 11.621,0C5.918,0 1.212,-4.46 0.907,-10.156L0,-27.135Z" style="fill:rgb(55,90,100);fill-rule:nonzero;"/>
        </g>
        <g transform="matrix(1.64112,0,0,1.64112,702.912,371.73)">
            <path d="M0,0.388C-1.007,1.143 -2.811,1.027 -3.985,0.815C-3.32,-0.962 -2.992,-2.782 -2.838,-4.307C-2.03,-4.356 -0.671,-4.29 0.116,-3.624C0.602,-3.214 0.837,-2.597 0.837,-1.738C0.837,-0.729 0.562,-0.034 0,0.388M1.616,-5.399C0.269,-6.538 -1.573,-6.683 -2.708,-6.644C-2.702,-7.477 -2.739,-7.991 -2.739,-7.991L-26.327,-7.991C-26.327,-7.991 -27.068,7.582 -15.143,8.133C-9.806,8.379 -6.751,5.988 -5.003,2.978C-4.433,3.113 -3.441,3.303 -2.327,3.303C-1.085,3.303 0.3,3.066 1.389,2.252C2.197,1.649 3.161,0.466 3.161,-1.738C3.161,-3.685 2.321,-4.803 1.616,-5.399" style="fill:rgb(255,79,91);fill-rule:nonzero;"/>
        </g>
        <g transform="matrix(1.64112,0,0,1.64112,687.108,314.676)">
            <path d="M0,25.353C-0.031,25.337 0.181,25.176 0.191,24.761C0.193,24.361 -0.109,23.742 -0.782,23.342C-1.117,23.156 -1.559,23.044 -2.033,22.914C-2.505,22.778 -3.062,22.639 -3.544,22.238C-4.025,21.844 -4.328,21.175 -4.319,20.482C-4.323,19.789 -4.11,19.074 -3.72,18.424C-2.912,17.113 -1.45,16.285 -0.427,14.989C0.571,13.69 0.934,11.783 0.425,9.999C0.188,9.105 -0.298,8.261 -0.964,7.575C-1.641,6.896 -2.553,6.444 -3.486,5.977C-4.409,5.493 -5.434,5.022 -6.153,4.069C-6.493,3.601 -6.742,3.064 -6.85,2.483C-6.965,1.909 -6.933,1.263 -6.626,0.7C-6.467,0.408 -6.221,0.178 -5.975,0.004L-5.707,0.45C-7.523,1.463 -8.302,3.736 -7.977,5.629C-7.816,6.594 -7.365,7.465 -6.684,8.111C-6.009,8.772 -5.15,9.319 -4.638,10.215C-4.39,10.66 -4.263,11.175 -4.29,11.674C-4.318,12.173 -4.478,12.641 -4.697,13.054C-5.146,13.881 -5.806,14.515 -6.515,14.999C-7.965,15.916 -9.459,16.377 -10.561,17.217C-11.69,18.02 -12.24,19.224 -12.33,20.309C-12.442,21.396 -12.199,22.35 -11.865,23.04C-11.168,24.447 -10.272,24.819 -10.334,24.874C-10.339,24.882 -10.388,24.859 -10.48,24.805C-10.569,24.747 -10.719,24.68 -10.878,24.543C-11.215,24.294 -11.662,23.839 -12.044,23.129C-12.419,22.424 -12.706,21.435 -12.616,20.283C-12.569,19.71 -12.432,19.094 -12.128,18.504C-11.831,17.911 -11.354,17.372 -10.78,16.928C-9.63,16.026 -8.107,15.529 -6.755,14.646C-6.099,14.189 -5.49,13.584 -5.099,12.843C-4.696,12.111 -4.608,11.197 -5.052,10.449C-5.482,9.693 -6.297,9.162 -7.026,8.466C-7.782,7.762 -8.302,6.772 -8.477,5.716C-8.836,3.638 -8.017,1.158 -5.958,-0.006L-5.69,0.44C-5.873,0.574 -6.055,0.738 -6.172,0.955C-6.626,1.811 -6.315,2.972 -5.735,3.762C-5.146,4.563 -4.166,5.05 -3.256,5.521C-2.33,5.991 -1.365,6.464 -0.612,7.223C0.118,7.982 0.638,8.906 0.887,9.872C1.421,11.796 1.019,13.847 -0.087,15.254C-1.211,16.626 -2.658,17.423 -3.406,18.618C-4.151,19.772 -4.221,21.306 -3.354,22.017C-2.503,22.706 -1.398,22.707 -0.679,23.168C0.041,23.634 0.331,24.316 0.296,24.764C0.281,24.993 0.186,25.145 0.124,25.237C0.048,25.321 0.006,25.359 0,25.353" style="fill:rgb(26,46,53);fill-rule:nonzero;"/>
        </g>
        <g transform="matrix(1.64112,0,0,1.64112,445.688,153.668)">
            <path d="M0,34.075L-115.073,34.075C-116.857,34.075 -118.303,32.629 -118.303,30.844L-118.303,3.23C-118.303,1.446 -116.857,0 -115.073,0L0,0C1.784,0 3.23,1.446 3.23,3.23L3.23,30.844C3.23,32.629 1.784,34.075 0,34.075" style="fill:rgb(55,90,100);fill-rule:nonzero;"/>
        </g>
        <g transform="matrix(1.02662,-1.28037,-1.28037,-1.02662,295.961,180.71)">
            <path d="M-5.778,-2.773C-9.868,-2.772 -13.183,0.544 -13.183,4.633C-13.183,8.723 -9.867,12.039 -5.778,12.038C-1.688,12.039 1.628,8.722 1.627,4.633C1.628,0.543 -1.688,-2.774 -5.778,-2.773" style="fill:white;fill-rule:nonzero;"/>
        </g>
        <g transform="matrix(1.64112,0,0,1.64112,290.929,187.894)">
            <path d="M0,-5.282C0.1,-5.179 -1.691,-3.269 -4,-1.017C-4.337,-0.692 -4.663,-0.378 -4.979,-0.073L-5.161,0.103L-5.335,-0.075C-7.136,-1.915 -8.412,-3.337 -8.325,-3.424C-8.239,-3.511 -6.816,-2.234 -4.977,-0.433L-5.333,-0.435C-5.02,-0.744 -4.697,-1.062 -4.364,-1.39C-2.055,-3.642 -0.101,-5.385 0,-5.282" style="fill:rgb(255,79,91);fill-rule:nonzero;"/>
        </g>
        <g transform="matrix(0,-1.64112,-1.64112,0,374.898,120.905)">
            <path d="M-34.505,-34.503C-34.649,-34.503 -34.765,-19.054 -34.765,-0.001C-34.765,19.059 -34.649,34.505 -34.505,34.505C-34.361,34.505 -34.244,19.059 -34.244,-0.001C-34.244,-19.054 -34.361,-34.503 -34.505,-34.503" style="fill:white;fill-rule:nonzero;"/>
        </g>
        <g transform="matrix(0,-1.64112,-1.64112,0,352.335,155.853)">
            <path d="M-19.948,-19.948C-20.092,-19.948 -20.208,-11.016 -20.208,-0.001C-20.208,11.017 -20.092,19.948 -19.948,19.948C-19.804,19.948 -19.688,11.017 -19.688,-0.001C-19.688,-11.016 -19.804,-19.948 -19.948,-19.948" style="fill:white;fill-rule:nonzero;"/>
        </g>
        <g transform="matrix(1.64112,0,0,1.64112,445.688,217.632)">
            <path d="M0,34.075L-115.073,34.075C-116.857,34.075 -118.303,32.629 -118.303,30.845L-118.303,3.23C-118.303,1.446 -116.857,0 -115.073,0L0,0C1.784,0 3.23,1.446 3.23,3.23L3.23,30.845C3.23,32.629 1.784,34.075 0,34.075" style="fill:rgb(55,90,100);fill-rule:nonzero;"/>
        </g>
        <g transform="matrix(1.02669,-1.28031,-1.28031,-1.02669,295.961,244.676)">
            <path d="M-5.778,-2.773C-9.867,-2.772 -13.183,0.543 -13.183,4.632C-13.183,8.723 -9.868,12.039 -5.778,12.039C-1.688,12.039 1.628,8.723 1.627,4.633C1.628,0.543 -1.687,-2.773 -5.778,-2.773" style="fill:white;fill-rule:nonzero;"/>
        </g>
        <g transform="matrix(1.64112,0,0,1.64112,290.929,251.859)">
            <path d="M0,-5.282C0.1,-5.179 -1.691,-3.269 -4,-1.017C-4.337,-0.692 -4.663,-0.378 -4.979,-0.073L-5.161,0.103L-5.335,-0.075C-7.136,-1.915 -8.412,-3.337 -8.325,-3.424C-8.239,-3.511 -6.816,-2.234 -4.977,-0.433L-5.333,-0.435C-5.02,-0.744 -4.697,-1.061 -4.364,-1.39C-2.055,-3.642 -0.101,-5.385 0,-5.282" style="fill:rgb(255,79,91);fill-rule:nonzero;"/>
        </g>
        <g transform="matrix(0,-1.64112,-1.64112,0,374.898,184.869)">
            <path d="M-34.505,-34.503C-34.649,-34.503 -34.765,-19.054 -34.765,-0.001C-34.765,19.059 -34.649,34.505 -34.505,34.505C-34.361,34.505 -34.244,19.059 -34.244,-0.001C-34.244,-19.054 -34.361,-34.503 -34.505,-34.503" style="fill:white;fill-rule:nonzero;"/>
        </g>
        <g transform="matrix(0,-1.64112,-1.64112,0,352.335,219.818)">
            <path d="M-19.948,-19.949C-20.092,-19.949 -20.209,-11.016 -20.209,-0.002C-20.209,11.016 -20.092,19.948 -19.948,19.948C-19.804,19.948 -19.688,11.016 -19.688,-0.002C-19.688,-11.016 -19.804,-19.949 -19.948,-19.949" style="fill:white;fill-rule:nonzero;"/>
        </g>
        <g transform="matrix(1.64112,0,0,1.64112,445.688,281.597)">
            <path d="M0,34.075L-115.073,34.075C-116.857,34.075 -118.303,32.629 -118.303,30.845L-118.303,3.231C-118.303,1.446 -116.857,0 -115.073,0L0,0C1.784,0 3.23,1.446 3.23,3.231L3.23,30.845C3.23,32.629 1.784,34.075 0,34.075" style="fill:rgb(55,90,100);fill-rule:nonzero;"/>
        </g>
        <g transform="matrix(1.02669,-1.28031,-1.28031,-1.02669,295.961,308.64)">
            <path d="M-5.778,-2.773C-9.867,-2.772 -13.183,0.543 -13.183,4.632C-13.183,8.723 -9.868,12.039 -5.778,12.039C-1.688,12.039 1.628,8.723 1.627,4.633C1.628,0.543 -1.687,-2.773 -5.778,-2.773" style="fill:white;fill-rule:nonzero;"/>
        </g>
        <g transform="matrix(1.64112,0,0,1.64112,290.929,315.823)">
            <path d="M0,-5.282C0.1,-5.179 -1.691,-3.269 -4,-1.017C-4.337,-0.692 -4.663,-0.378 -4.979,-0.073L-5.161,0.103L-5.335,-0.075C-7.136,-1.915 -8.412,-3.337 -8.325,-3.424C-8.239,-3.511 -6.816,-2.234 -4.977,-0.433L-5.333,-0.435C-5.02,-0.744 -4.697,-1.061 -4.364,-1.39C-2.055,-3.642 -0.101,-5.385 0,-5.282" style="fill:rgb(255,79,91);fill-rule:nonzero;"/>
        </g>
        <g transform="matrix(0,-1.64112,-1.64112,0,374.897,248.835)">
            <path d="M-34.504,-34.504C-34.648,-34.504 -34.764,-19.055 -34.764,-0.002C-34.764,19.058 -34.648,34.504 -34.504,34.504C-34.36,34.504 -34.244,19.058 -34.244,-0.002C-34.244,-19.055 -34.36,-34.504 -34.504,-34.504" style="fill:white;fill-rule:nonzero;"/>
        </g>
        <g transform="matrix(0,-1.64112,-1.64112,0,352.335,283.782)">
            <path d="M-19.948,-19.948C-20.092,-19.948 -20.208,-11.016 -20.208,-0.001C-20.208,11.017 -20.092,19.948 -19.948,19.948C-19.804,19.948 -19.688,11.017 -19.688,-0.001C-19.688,-11.016 -19.804,-19.948 -19.948,-19.948" style="fill:white;fill-rule:nonzero;"/>
        </g>
        <g transform="matrix(-0.0379426,1.64068,1.64068,0.0379426,627.144,567.252)">
            <path d="M-44.149,-39.494L38.507,-39.494L38.591,-43.14L-43.818,-44.813L-44.149,-39.494Z" style="fill:rgb(26,46,53);fill-rule:nonzero;"/>
        </g>
        <g transform="matrix(0.340508,1.60541,1.60541,-0.340508,666.855,528.665)">
            <path d="M-32.235,-43.761L53.174,-43.761L54.016,-39.789L-30.776,-36.884L-32.235,-43.761Z" style="fill:rgb(26,46,53);fill-rule:nonzero;"/>
        </g>
        <g transform="matrix(-0.378915,1.59678,1.59678,0.378915,572.908,595.338)">
            <path d="M-54.604,-39.133L30.325,-39.133L31.263,-43.085L-53.576,-44.929L-54.604,-39.133Z" style="fill:rgb(26,46,53);fill-rule:nonzero;"/>
        </g>
        <g transform="matrix(1.64112,0,0,1.64112,623.386,498.563)">
            <path d="M0,-94.037C0,-94.037 22.467,-95.32 20.221,-69.323C17.974,-43.327 16.689,-17.011 8.346,-8.023C0,0.963 -84.087,1.283 -91.148,-6.099C-98.209,-13.478 -77.668,-13.158 -73.816,-13.158C-69.965,-13.158 -46.215,-10.912 -38.513,-31.132C-30.811,-51.35 -32.735,-95.32 0,-94.037" style="fill:rgb(26,46,53);fill-rule:nonzero;"/>
        </g>
        <g transform="matrix(1.64112,0,0,1.64112,625.752,498.804)">
            <path d="M0,-94.17C0,-94.17 17.175,-90.652 15.568,-72.68C13.964,-54.706 9.471,-23.255 1.127,-15.232C-7.219,-7.207 -39.915,-5.459 -57.606,-6.566C-78.146,-7.85 -91.112,-11.761 -91.112,-11.761C-91.112,-11.761 -94.861,-9.35 -93.725,-7.797C-92.589,-6.245 -82.575,0 -34.025,-1.04C14.523,-2.081 11.148,-9.244 13.163,-17.068C15.18,-24.894 19.407,-66.61 18.82,-75.782C18.235,-84.954 13.614,-92.561 0,-94.17" style="fill:rgb(55,90,100);fill-rule:nonzero;"/>
        </g>
        <g transform="matrix(1.64112,0,0,1.64112,546.582,305.979)">
            <path d="M0,-52.899C5.343,-54.887 11.926,-52.706 15.026,-47.922C17.197,-44.571 17.698,-40.341 19.915,-37.02C21.485,-34.668 23.807,-32.935 25.722,-30.854C27.636,-28.772 29.214,-26.028 28.73,-23.241C28.276,-20.622 26.062,-18.31 26.508,-15.689C26.924,-13.234 29.544,-11.634 30.05,-9.197C30.647,-6.326 27.88,-3.642 24.983,-3.192C22.086,-2.742 19.201,-3.862 16.476,-4.944C13.751,-6.026 10.843,-7.11 7.958,-6.587C4.601,-5.979 2.037,-3.35 -0.899,-1.613C-6.985,1.988 -15.238,1.496 -20.854,-2.802C-23.062,-4.491 -24.982,-7.118 -24.448,-9.846C-23.951,-12.388 -21.5,-14.147 -20.786,-16.636C-19.723,-20.338 -22.803,-24.12 -22.337,-27.943C-21.712,-33.088 -15.373,-35.439 -13.059,-40.077C-11.948,-42.302 -11.851,-44.909 -10.873,-47.196C-9.894,-49.483 -7.352,-51.524 -5.062,-50.55" style="fill:rgb(26,46,53);fill-rule:nonzero;"/>
        </g>
        <g transform="matrix(1.64112,0,0,1.64112,543.035,219.788)">
            <path d="M0,46.403C0.338,44.578 -0.253,36.876 -0.253,36.876C-0.253,36.876 -7.08,36.015 -7.374,29.048C-7.668,22.079 -6.976,6.034 -6.976,6.034L5.59,0L16.556,12.501L16.764,46.291L0,46.403Z" style="fill:rgb(255,191,157);fill-rule:nonzero;"/>
        </g>
        <g transform="matrix(-0.0283562,1.64088,1.64088,0.0283562,534.526,248.473)">
            <path d="M0.869,-0.883C1.361,-0.883 1.759,-0.494 1.759,-0.014C1.76,0.464 1.361,0.855 0.869,0.853C0.377,0.854 -0.022,0.465 -0.022,-0.013C-0.023,-0.493 0.377,-0.883 0.869,-0.883" style="fill:rgb(26,46,53);fill-rule:nonzero;"/>
        </g>
        <g transform="matrix(1.64112,0,0,1.64112,532.137,245.745)">
            <path d="M0,0.956C0.11,1.073 0.761,0.525 1.696,0.49C2.631,0.44 3.325,0.928 3.425,0.801C3.475,0.745 3.361,0.53 3.059,0.309C2.761,0.089 2.255,-0.117 1.672,-0.09C1.089,-0.064 0.603,0.186 0.324,0.432C0.04,0.681 -0.054,0.904 0,0.956" style="fill:rgb(26,46,53);fill-rule:nonzero;"/>
        </g>
        <g transform="matrix(-0.0283562,1.64088,1.64088,0.0283562,551.22,248.473)">
            <path d="M0.868,-0.883C1.361,-0.883 1.759,-0.493 1.759,-0.013C1.759,0.465 1.361,0.854 0.868,0.854C0.376,0.854 -0.023,0.465 -0.023,-0.014C-0.023,-0.494 0.376,-0.882 0.868,-0.883" style="fill:rgb(26,46,53);fill-rule:nonzero;"/>
        </g>
        <g transform="matrix(1.64112,0,0,1.64112,549.14,246.04)">
            <path d="M0,0.956C0.109,1.073 0.761,0.524 1.696,0.49C2.631,0.44 3.325,0.928 3.425,0.801C3.474,0.745 3.361,0.53 3.058,0.309C2.76,0.089 2.255,-0.117 1.672,-0.091C1.089,-0.064 0.603,0.185 0.324,0.432C0.041,0.68 -0.054,0.904 0,0.956" style="fill:rgb(26,46,53);fill-rule:nonzero;"/>
        </g>
        <g transform="matrix(1.64112,0,0,1.64112,543.375,247.146)">
            <path d="M0,8.325C0.004,8.268 -0.58,8.183 -1.524,8.093C-1.764,8.075 -1.99,8.034 -2.033,7.861C-2.093,7.679 -1.997,7.399 -1.886,7.096C-1.671,6.468 -1.446,5.81 -1.21,5.12C-0.271,2.307 0.402,-0.002 0.298,-0.039C0.192,-0.076 -0.653,2.174 -1.592,4.987C-1.816,5.68 -2.032,6.341 -2.237,6.973C-2.323,7.268 -2.474,7.604 -2.346,7.982C-2.278,8.171 -2.101,8.303 -1.947,8.341C-1.793,8.385 -1.658,8.382 -1.54,8.385C-0.591,8.401 -0.002,8.382 0,8.325" style="fill:rgb(26,46,53);fill-rule:nonzero;"/>
        </g>
        <g transform="matrix(1.64112,0,0,1.64112,542.62,278.925)">
            <path d="M0,0.842C0,0.842 4.566,0.973 9.039,-2.117C9.039,-2.117 6.915,2.959 0.118,2.552L0,0.842Z" style="fill:rgb(255,154,108);fill-rule:nonzero;"/>
        </g>
        <g transform="matrix(1.64112,0,0,1.64112,543.928,263.522)">
            <path d="M0,0.803C0.107,0.214 0.529,-0.307 1.084,-0.534C1.468,-0.692 1.922,-0.706 2.289,-0.512C2.656,-0.318 2.908,0.104 2.846,0.514C2.774,0.976 2.336,1.313 1.879,1.411C1.422,1.509 0.947,1.417 0.491,1.317C0.364,1.289 0.234,1.259 0.129,1.184C0.024,1.11 -0.052,0.978 -0.022,0.852" style="fill:rgb(255,154,108);fill-rule:nonzero;"/>
        </g>
        <g transform="matrix(1.64112,0,0,1.64112,547.731,265.604)">
            <path d="M0,-2.959C0.065,-2.967 0.178,-2.703 0.144,-2.249C0.113,-1.804 -0.105,-1.168 -0.625,-0.676C-1.146,-0.186 -1.794,-0.005 -2.24,-0.001C-2.694,0.008 -2.952,-0.12 -2.94,-0.185C-2.938,-0.328 -1.846,-0.239 -0.982,-1.055C-0.118,-1.87 -0.143,-2.964 0,-2.959" style="fill:rgb(26,46,53);fill-rule:nonzero;"/>
        </g>
        <g transform="matrix(1.64112,0,0,1.64112,530.646,253.599)">
            <path d="M0,-15.346C0.372,-11.304 4.221,-7.897 8.279,-8.02C7.647,-9.408 7.015,-10.795 6.382,-12.183C8.065,-10.227 9.808,-8.221 12.11,-7.056C14.412,-5.89 17.436,-5.761 19.399,-7.435C20.038,-5.73 20.026,-3.841 20.611,-2.117C21.196,-0.392 22.574,6.716 24.374,6.445C26.028,6.196 27.202,-0.972 27.623,-2.59C28.789,-7.06 27.329,-11.985 24.357,-15.521C20.83,-19.718 15.225,-22.062 9.756,-21.675C7.332,-21.504 4.887,-20.795 2.979,-19.289C1.302,-17.965 0.103,-16.049 -0.354,-13.962" style="fill:rgb(26,46,53);fill-rule:nonzero;"/>
        </g>
        <g transform="matrix(1.64112,0,0,1.64112,515.287,222.745)">
            <path d="M0,34.85C-0.005,34.867 -0.167,34.83 -0.474,34.742C-0.778,34.653 -1.226,34.495 -1.759,34.204C-2.831,33.657 -4.292,32.537 -5.397,30.637C-6.513,28.786 -7.103,25.951 -6.04,23.193C-5.524,21.833 -4.668,20.518 -3.488,19.455C-2.334,18.372 -0.788,17.603 0.836,17.265C1.623,17.08 2.377,16.853 2.855,16.308C3.341,15.774 3.566,15.033 3.621,14.305C3.741,12.83 3.163,11.406 3,9.961C2.798,8.499 3.162,7.063 3.817,5.943C4.462,4.802 5.442,3.991 6.406,3.482C7.372,2.969 8.289,2.639 9.067,2.304C9.85,1.977 10.495,1.643 10.979,1.303C11.953,0.621 12.24,-0.017 12.29,0.021C12.306,0.03 12.229,0.178 12.067,0.455C11.878,0.71 11.59,1.099 11.099,1.466C10.618,1.843 9.965,2.214 9.186,2.57C8.41,2.933 7.504,3.288 6.584,3.804C5.669,4.316 4.784,5.079 4.192,6.157C3.596,7.218 3.276,8.541 3.476,9.902C3.633,11.269 4.243,12.7 4.129,14.344C4.071,15.142 3.832,15.998 3.238,16.657C2.638,17.336 1.743,17.586 0.958,17.771C-2.223,18.385 -4.618,20.795 -5.592,23.364C-6.62,25.965 -6.109,28.645 -5.076,30.457C-4.054,32.308 -2.677,33.44 -1.659,34.027C-0.634,34.628 0.019,34.797 0,34.85" style="fill:rgb(26,46,53);fill-rule:nonzero;"/>
        </g>
        <g transform="matrix(1.64112,0,0,1.64112,589.612,228.793)">
            <path d="M0,40.327C-0.023,40.289 0.591,39.931 1.625,39.186C2.614,38.433 4.188,37.271 5.049,35.192C5.44,34.164 5.609,32.89 5.24,31.65C5.062,31.035 4.735,30.439 4.248,29.973C3.773,29.491 3.119,29.169 2.46,28.776C1.071,28.054 -0.029,26.485 -0.075,24.73C-0.15,22.92 0.979,21.417 1.378,19.807C1.787,18.175 1.375,16.472 0.619,15.069C-0.13,13.641 -1.208,12.484 -2.347,11.518C-4.642,9.595 -7.025,8.19 -8.676,6.548C-10.347,4.937 -11.28,3.229 -11.615,1.977C-11.8,1.353 -11.832,0.846 -11.857,0.508C-11.855,0.167 -11.846,-0.009 -11.828,-0.009C-11.77,-0.015 -11.818,0.712 -11.422,1.917C-11.036,3.118 -10.086,4.74 -8.421,6.282C-6.78,7.852 -4.401,9.208 -2.036,11.152C-0.865,12.128 0.276,13.332 1.069,14.829C1.87,16.299 2.333,18.139 1.883,19.933C1.423,21.688 0.354,23.129 0.435,24.712C0.482,26.286 1.416,27.675 2.708,28.365C3.339,28.752 4.032,29.095 4.569,29.646C5.114,30.181 5.468,30.853 5.654,31.53C6.038,32.894 5.828,34.243 5.391,35.328C4.933,36.423 4.245,37.252 3.586,37.893C2.921,38.534 2.278,38.999 1.741,39.352C1.202,39.706 0.768,39.952 0.47,40.111C0.171,40.269 0.009,40.342 0,40.327" style="fill:rgb(26,46,53);fill-rule:nonzero;"/>
        </g>
        <g transform="matrix(1.64112,0,0,1.64112,530.272,229.809)">
            <path d="M0,7.487C0.993,6.731 1.614,5.569 1.942,4.365C2.271,3.161 2.335,1.903 2.396,0.656C2.413,0.296 2.36,-0.17 2.012,-0.265C1.675,-0.358 1.393,-0.009 1.229,0.3C0.011,2.591 -0.429,5.286 -0.003,7.845L0.22,7.639" style="fill:rgb(26,46,53);fill-rule:nonzero;"/>
        </g>
        <g transform="matrix(1.64112,0,0,1.64112,501.635,614.199)">
            <path d="M0,4.021L-0.184,-4.97L16.656,-5.423L17.065,7.728L16.022,7.824C11.382,8.207 -7.596,9.444 -10.728,8.586C-14.221,7.628 0,4.021 0,4.021" style="fill:rgb(255,79,91);fill-rule:nonzero;"/>
        </g>
        <g transform="matrix(1.64112,0,0,1.64112,119.814,-95.4825)">
            <g opacity="0.5">
                <g transform="matrix(0.641438,0.767175,0.767175,-0.641438,242.766,436.956)">
                    <path d="M3.03,-1.428C2.075,-0.367 1.535,1.058 1.547,2.486C1.559,3.914 2.058,5.289 3.03,6.334L6.725,3.414L3.03,-1.428Z" style="fill:white;fill-rule:nonzero;"/>
                </g>
            </g>
        </g>
        <g transform="matrix(1.64112,0,0,1.64112,119.814,-95.4825)">
            <g opacity="0.4">
                <g transform="matrix(1,0,0,1,225.717,441.669)">
                    <path d="M0,-3.2C0,-3.2 -4.976,-1.618 -4.328,-0.809C-3.681,0 15.546,-0.529 24.006,-1.505L23.969,-1.88L1.548,-1.072C1.548,-1.072 0.981,-3.185 0,-3.2" style="fill:white;fill-rule:nonzero;"/>
                </g>
            </g>
        </g>
        <g transform="matrix(1.64112,0,0,1.64112,530.013,627.729)">
            <path d="M0,-0.909C0,-0.902 -0.099,-0.888 -0.289,-0.87C-0.538,-0.847 -0.811,-0.824 -1.119,-0.797C-1.95,-0.738 -2.971,-0.666 -4.176,-0.581C-6.758,-0.417 -10.329,-0.237 -14.276,-0.125C-18.225,-0.014 -21.8,0.008 -24.388,-0.01C-25.596,-0.026 -26.619,-0.041 -27.452,-0.053C-27.761,-0.062 -28.035,-0.071 -28.285,-0.079C-28.475,-0.087 -28.575,-0.095 -28.575,-0.101C-28.575,-0.108 -28.475,-0.115 -28.285,-0.12C-28.034,-0.124 -27.76,-0.128 -27.451,-0.132C-26.619,-0.138 -25.596,-0.145 -24.388,-0.154C-21.801,-0.173 -18.228,-0.219 -14.282,-0.329C-10.337,-0.441 -6.768,-0.597 -4.184,-0.725C-2.978,-0.785 -1.956,-0.835 -1.124,-0.877C-0.815,-0.889 -0.542,-0.9 -0.292,-0.911C-0.101,-0.917 -0.001,-0.916 0,-0.909" style="fill:rgb(26,46,53);fill-rule:nonzero;"/>
        </g>
        <g transform="matrix(1.37482,-0.896185,-0.896185,-1.37482,493.761,626.933)">
            <path d="M-0.851,-0.236C-0.909,-0.211 -0.567,0.438 -0.575,1.308C-0.567,2.179 -0.909,2.827 -0.851,2.853C-0.815,2.891 -0.365,2.242 -0.371,1.309C-0.365,0.374 -0.815,-0.273 -0.851,-0.236" style="fill:rgb(26,46,53);fill-rule:nonzero;"/>
        </g>
        <g transform="matrix(1.36092,-0.917162,-0.917162,-1.36092,501.345,623.042)">
            <path d="M-0.464,-0.142C-0.521,-0.141 -0.566,0.23 -0.566,0.689C-0.566,1.147 -0.521,1.519 -0.464,1.519C-0.407,1.519 -0.362,1.148 -0.362,0.689C-0.362,0.23 -0.408,-0.142 -0.464,-0.142" style="fill:rgb(26,46,53);fill-rule:nonzero;"/>
        </g>
        <g transform="matrix(1.06257,-1.25069,-1.25069,-1.06257,503.309,621.477)">
            <path d="M-0.539,-0.249C-0.595,-0.249 -0.641,0.068 -0.64,0.457C-0.641,0.848 -0.595,1.164 -0.538,1.164C-0.482,1.164 -0.437,0.848 -0.436,0.457C-0.437,0.067 -0.482,-0.249 -0.539,-0.249" style="fill:rgb(26,46,53);fill-rule:nonzero;"/>
        </g>
        <g transform="matrix(-0.0633957,-1.6399,-1.6399,0.0633957,502.836,618.384)">
            <path d="M-0.879,-0.915C-0.936,-0.914 -0.982,-0.52 -0.982,-0.034C-0.981,0.451 -0.936,0.846 -0.879,0.846C-0.823,0.845 -0.777,0.451 -0.778,-0.034C-0.778,-0.52 -0.823,-0.915 -0.879,-0.915" style="fill:rgb(26,46,53);fill-rule:nonzero;"/>
        </g>
        <g transform="matrix(-0.168338,-1.63247,-1.63247,0.168338,502.778,616.588)">
            <path d="M-0.932,-1.158C-0.984,-1.174 -1.145,-0.731 -1.143,-0.159C-1.145,0.414 -0.984,0.856 -0.932,0.84C-0.874,0.826 -0.941,0.385 -0.939,-0.159C-0.942,-0.703 -0.875,-1.145 -0.932,-1.158" style="fill:rgb(26,46,53);fill-rule:nonzero;"/>
        </g>
        <g transform="matrix(1.64112,0,0,1.64112,499.839,618.861)">
            <path d="M0,1.471C0.002,1.493 -0.412,1.556 -1.082,1.493C-1.417,1.463 -1.813,1.395 -2.241,1.272C-2.454,1.201 -2.676,1.152 -2.908,1.018C-3.017,0.95 -3.139,0.852 -3.185,0.689C-3.234,0.528 -3.153,0.343 -3.033,0.252C-2.013,-0.312 -0.962,0.241 -0.563,0.765C-0.344,1.032 -0.24,1.295 -0.19,1.477C-0.142,1.661 -0.142,1.767 -0.154,1.769C-0.192,1.783 -0.239,1.345 -0.672,0.86C-0.886,0.621 -1.206,0.393 -1.613,0.284C-1.999,0.181 -2.543,0.165 -2.9,0.408C-3.069,0.539 -2.997,0.74 -2.802,0.848C-2.621,0.958 -2.389,1.022 -2.187,1.091C-1.773,1.221 -1.39,1.302 -1.064,1.351C-0.413,1.448 0,1.438 0,1.471" style="fill:rgb(26,46,53);fill-rule:nonzero;"/>
        </g>
        <g transform="matrix(1.64112,0,0,1.64112,499.381,617.9)">
            <path d="M0,2.118C-0.015,2.13 -0.182,1.857 -0.146,1.37C-0.125,1.13 -0.046,0.845 0.128,0.571C0.313,0.326 0.549,-0.012 1.014,-0.005C1.266,0.019 1.396,0.302 1.361,0.485C1.347,0.676 1.266,0.841 1.191,0.973C1.037,1.248 0.861,1.472 0.698,1.642C0.368,1.983 0.103,2.117 0.09,2.097C0.071,2.071 0.301,1.897 0.59,1.547C0.733,1.371 0.889,1.149 1.025,0.885C1.167,0.652 1.257,0.238 0.985,0.197C0.713,0.178 0.444,0.455 0.285,0.676C0.121,0.915 0.034,1.169 -0.002,1.388C-0.073,1.83 0.036,2.108 0,2.118" style="fill:rgb(26,46,53);fill-rule:nonzero;"/>
        </g>
        <g transform="matrix(1.64112,0,0,1.64112,529.241,626.612)">
            <path d="M0,-4.827C-0.003,-4.789 -0.483,-4.859 -1.242,-4.749C-1.994,-4.644 -3.034,-4.306 -3.926,-3.556C-4.817,-2.803 -5.326,-1.835 -5.556,-1.111C-5.793,-0.383 -5.805,0.103 -5.843,0.1C-5.855,0.099 -5.865,-0.022 -5.853,-0.24C-5.841,-0.459 -5.798,-0.774 -5.694,-1.153C-5.494,-1.907 -4.987,-2.927 -4.058,-3.712C-3.127,-4.494 -2.037,-4.822 -1.26,-4.892C-0.869,-4.93 -0.55,-4.92 -0.333,-4.893C-0.116,-4.869 0.001,-4.839 0,-4.827" style="fill:rgb(26,46,53);fill-rule:nonzero;"/>
        </g>
        <g transform="matrix(-1.6398,0.0658954,0.0658954,1.6398,526.742,618.608)">
            <path d="M0.138,-6.92C0.082,-6.921 0.036,-5.37 0.036,-3.459C0.036,-1.546 0.082,0.003 0.138,0.004C0.194,0.004 0.24,-1.547 0.24,-3.458C0.24,-5.37 0.195,-6.92 0.138,-6.92" style="fill:rgb(26,46,53);fill-rule:nonzero;"/>
        </g>
        <g transform="matrix(-0.060679,-1.64,-1.64,0.060679,511.631,620.565)">
            <path d="M-2.396,-2.613C-2.45,-2.62 -2.619,-1.521 -2.618,-0.153C-2.619,1.216 -2.449,2.316 -2.396,2.309C-2.337,2.304 -2.414,1.204 -2.412,-0.152C-2.416,-1.508 -2.336,-2.608 -2.396,-2.613" style="fill:rgb(26,46,53);fill-rule:nonzero;"/>
        </g>
        <g transform="matrix(-1.51252,-0.636849,-0.636849,1.51252,520.457,625.503)">
            <path d="M-0.26,-0.985C-0.314,-0.964 -0.275,-0.736 -0.276,-0.46C-0.275,-0.182 -0.316,0.047 -0.26,0.067C-0.211,0.09 -0.072,-0.14 -0.072,-0.459C-0.071,-0.778 -0.211,-1.007 -0.26,-0.985" style="fill:rgb(26,46,53);fill-rule:nonzero;"/>
        </g>
        <g transform="matrix(-1.19908,-1.12048,-1.12048,1.19908,522.213,622.172)">
            <path d="M-0.306,-0.777C-0.362,-0.777 -0.408,-0.576 -0.407,-0.328C-0.408,-0.08 -0.362,0.122 -0.306,0.121C-0.25,0.121 -0.204,-0.08 -0.203,-0.328C-0.203,-0.576 -0.249,-0.777 -0.306,-0.777" style="fill:rgb(26,46,53);fill-rule:nonzero;"/>
        </g>
        <g transform="matrix(-0.571048,-1.53857,-1.53857,0.571048,525.078,619.855)">
            <path d="M-0.545,-0.617C-0.596,-0.587 -0.522,-0.376 -0.524,-0.114C-0.521,0.149 -0.595,0.36 -0.545,0.389C-0.499,0.422 -0.319,0.21 -0.321,-0.114C-0.32,-0.438 -0.501,-0.65 -0.545,-0.617" style="fill:rgb(26,46,53);fill-rule:nonzero;"/>
        </g>
        <g transform="matrix(-0.635496,-1.51309,-1.51309,0.635496,527.674,619.598)">
            <path d="M-0.25,-0.376C-0.306,-0.376 -0.352,-0.255 -0.352,-0.105C-0.352,0.045 -0.306,0.167 -0.25,0.166C-0.194,0.166 -0.147,0.045 -0.148,-0.105C-0.148,-0.255 -0.194,-0.377 -0.25,-0.376" style="fill:rgb(26,46,53);fill-rule:nonzero;"/>
        </g>
        <g transform="matrix(1.64112,0,0,1.64112,434.893,546.653)">
            <path d="M0,-2.925L3.904,-11.027L19.126,-3.811L13.541,8.102L12.568,7.716C8.257,5.958 -9.228,-1.527 -11.633,-3.708C-14.314,-6.143 0,-2.925 0,-2.925" style="fill:rgb(255,79,91);fill-rule:nonzero;"/>
        </g>
        <g transform="matrix(1.64112,0,0,1.64112,119.814,-95.4825)">
            <g opacity="0.5">
                <g transform="matrix(0.224822,0.9744,0.9744,-0.224822,202.939,392.912)">
                    <path d="M2.992,-3.637C2.037,-2.576 1.497,-1.15 1.509,0.277C1.52,1.706 2.019,3.08 2.992,4.125L6.686,1.207L2.992,-3.637Z" style="fill:white;fill-rule:nonzero;"/>
                </g>
            </g>
        </g>
        <g transform="matrix(1.64112,0,0,1.64112,119.814,-95.4825)">
            <g opacity="0.4">
                <g transform="matrix(1,0,0,1,184.889,398.539)">
                    <path d="M0,-11.533C0,-11.533 -5.153,-12.374 -4.941,-11.359C-4.73,-10.345 12.655,-2.117 20.641,0.841L20.778,0.489L0.417,-8.935C0.417,-8.935 0.868,-11.076 0,-11.533" style="fill:white;fill-rule:nonzero;"/>
                </g>
            </g>
        </g>
        <g transform="matrix(1.64112,0,0,1.64112,457.739,539.508)">
            <path d="M0,12.208C-0.003,12.215 -0.098,12.182 -0.275,12.112C-0.507,12.02 -0.762,11.918 -1.049,11.803C-1.816,11.479 -2.759,11.081 -3.873,10.611C-6.25,9.59 -9.515,8.134 -13.086,6.448C-16.657,4.761 -19.856,3.163 -22.155,1.976C-23.225,1.414 -24.131,0.938 -24.869,0.551C-25.14,0.402 -25.38,0.271 -25.6,0.151C-25.766,0.058 -25.851,0.005 -25.848,-0.001C-25.845,-0.007 -25.752,0.033 -25.581,0.114C-25.355,0.225 -25.11,0.345 -24.832,0.48C-24.087,0.852 -23.171,1.309 -22.09,1.847C-19.775,3 -16.568,4.576 -12.999,6.264C-9.43,7.948 -6.176,9.424 -3.814,10.479C-2.712,10.973 -1.777,11.39 -1.017,11.729C-0.736,11.857 -0.487,11.971 -0.259,12.075C-0.087,12.156 0.002,12.202 0,12.208" style="fill:rgb(26,46,53);fill-rule:nonzero;"/>
        </g>
        <g transform="matrix(1.63157,-0.176859,-0.176859,-1.63157,424.02,544.286)">
            <path d="M-0.166,0.011C-0.223,0.037 0.118,0.685 0.11,1.556C0.118,2.427 -0.224,3.075 -0.166,3.101C-0.13,3.137 0.32,2.49 0.315,1.556C0.32,0.622 -0.129,-0.026 -0.166,0.011" style="fill:rgb(26,46,53);fill-rule:nonzero;"/>
        </g>
        <g transform="matrix(1.62857,-0.202583,-0.202583,-1.62857,433.057,544.015)">
            <path d="M-0.102,-0.006C-0.159,-0.006 -0.204,0.365 -0.205,0.825C-0.204,1.283 -0.159,1.654 -0.102,1.654C-0.046,1.654 -0.001,1.283 0,0.824C0,0.366 -0.046,-0.006 -0.102,-0.006" style="fill:rgb(26,46,53);fill-rule:nonzero;"/>
        </g>
        <g transform="matrix(1.51378,-0.633838,-0.633838,-1.51378,435.8,543.678)">
            <path d="M-0.273,-0.055C-0.329,-0.054 -0.375,0.262 -0.375,0.651C-0.375,1.042 -0.33,1.358 -0.273,1.359C-0.217,1.358 -0.171,1.042 -0.171,0.652C-0.171,0.261 -0.217,-0.056 -0.273,-0.055" style="fill:rgb(26,46,53);fill-rule:nonzero;"/>
        </g>
        <g transform="matrix(0.685419,-1.49114,-1.49114,-0.685419,437.6,540.637)">
            <path d="M-0.799,-0.513C-0.856,-0.514 -0.902,-0.119 -0.902,0.366C-0.901,0.853 -0.856,1.247 -0.799,1.247C-0.743,1.247 -0.698,0.853 -0.698,0.367C-0.697,-0.12 -0.743,-0.513 -0.799,-0.513" style="fill:rgb(26,46,53);fill-rule:nonzero;"/>
        </g>
        <g transform="matrix(0.588634,-1.53193,-1.53193,-0.588634,438.594,538.903)">
            <path d="M-0.938,-0.654C-0.99,-0.669 -1.151,-0.227 -1.149,0.345C-1.15,0.918 -0.989,1.36 -0.938,1.345C-0.881,1.332 -0.947,0.89 -0.944,0.346C-0.947,-0.199 -0.88,-0.64 -0.938,-0.654" style="fill:rgb(26,46,53);fill-rule:nonzero;"/>
        </g>
        <g transform="matrix(1.64112,0,0,1.64112,433.076,537.688)">
            <path d="M0,2.301C-0.009,2.322 -0.406,2.191 -0.976,1.832C-1.26,1.654 -1.583,1.413 -1.909,1.11C-2.067,0.951 -2.243,0.806 -2.389,0.581C-2.455,0.471 -2.52,0.329 -2.487,0.163C-2.458,-0.003 -2.302,-0.131 -2.154,-0.158C-0.989,-0.2 -0.302,0.77 -0.183,1.417C-0.109,1.754 -0.135,2.036 -0.173,2.221C-0.213,2.407 -0.261,2.501 -0.273,2.497C-0.313,2.493 -0.157,2.081 -0.323,1.451C-0.406,1.143 -0.588,0.794 -0.902,0.513C-1.199,0.247 -1.678,-0.013 -2.106,0.04C-2.315,0.082 -2.342,0.293 -2.218,0.479C-2.106,0.658 -1.927,0.821 -1.779,0.974C-1.469,1.277 -1.163,1.522 -0.895,1.712C-0.358,2.094 0.014,2.272 0,2.301" style="fill:rgb(26,46,53);fill-rule:nonzero;"/>
        </g>
        <g transform="matrix(1.64112,0,0,1.64112,432.622,538.717)">
            <path d="M0,1.603C-0.019,1.607 -0.045,1.29 0.209,0.871C0.335,0.666 0.536,0.447 0.814,0.282C1.09,0.147 1.454,-0.047 1.865,0.168C2.078,0.305 2.066,0.616 1.953,0.763C1.854,0.926 1.707,1.037 1.58,1.122C1.318,1.297 1.061,1.417 0.837,1.496C0.389,1.65 0.092,1.65 0.09,1.626C0.084,1.594 0.368,1.543 0.784,1.361C0.992,1.269 1.23,1.142 1.472,0.967C1.704,0.825 1.972,0.497 1.748,0.335C1.514,0.197 1.148,0.322 0.906,0.446C0.652,0.585 0.459,0.773 0.329,0.952C0.065,1.314 0.036,1.612 0,1.603" style="fill:rgb(26,46,53);fill-rule:nonzero;"/>
        </g>
        <g transform="matrix(1.64112,0,0,1.64112,460.464,553.535)">
            <path d="M0,-0.653C-0.02,-0.62 -0.417,-0.9 -1.143,-1.145C-1.86,-1.392 -2.941,-1.561 -4.076,-1.295C-5.211,-1.027 -6.103,-0.394 -6.636,0.147C-7.177,0.689 -7.407,1.118 -7.439,1.097C-7.45,1.09 -7.404,0.979 -7.294,0.789C-7.186,0.6 -7.004,0.337 -6.74,0.046C-6.22,-0.535 -5.307,-1.215 -4.123,-1.494C-2.939,-1.771 -1.818,-1.57 -1.094,-1.281C-0.728,-1.138 -0.449,-0.984 -0.267,-0.863C-0.084,-0.743 0.007,-0.663 0,-0.653" style="fill:rgb(26,46,53);fill-rule:nonzero;"/>
        </g>
        <g transform="matrix(-1.49218,-0.683153,-0.683153,1.49218,456.131,549.717)">
            <path d="M-1.441,-6.609C-1.497,-6.609 -1.544,-5.059 -1.543,-3.148C-1.543,-1.235 -1.497,0.314 -1.441,0.314C-1.385,0.314 -1.339,-1.235 -1.338,-3.148C-1.339,-5.059 -1.385,-6.609 -1.441,-6.609" style="fill:rgb(26,46,53);fill-rule:nonzero;"/>
        </g>
        <g transform="matrix(0.687705,-1.49008,-1.49008,-0.687705,445.56,547.216)">
            <path d="M-2.237,-1.434C-2.29,-1.441 -2.46,-0.341 -2.458,1.027C-2.46,2.397 -2.289,3.496 -2.237,3.489C-2.178,3.483 -2.256,2.384 -2.253,1.028C-2.256,-0.329 -2.178,-1.428 -2.237,-1.434" style="fill:rgb(26,46,53);fill-rule:nonzero;"/>
        </g>
        <g transform="matrix(-1.06133,-1.25174,-1.25174,1.06133,449.526,554.212)">
            <path d="M-0.434,-0.856C-0.489,-0.836 -0.449,-0.607 -0.451,-0.33C-0.448,-0.054 -0.489,0.174 -0.434,0.195C-0.384,0.217 -0.245,-0.011 -0.246,-0.331C-0.245,-0.65 -0.384,-0.879 -0.434,-0.856" style="fill:rgb(26,46,53);fill-rule:nonzero;"/>
        </g>
        <g transform="matrix(-0.562602,-1.54168,-1.54168,0.562602,452.826,552.112)">
            <path d="M-0.422,-0.602C-0.478,-0.603 -0.523,-0.401 -0.524,-0.153C-0.524,0.095 -0.478,0.297 -0.422,0.296C-0.365,0.296 -0.32,0.095 -0.32,-0.153C-0.32,-0.401 -0.365,-0.603 -0.422,-0.602" style="fill:rgb(26,46,53);fill-rule:nonzero;"/>
        </g>
        <g transform="matrix(0.189102,-1.63019,-1.63019,-0.189102,456.634,551.62)">
            <path d="M-0.573,-0.37C-0.623,-0.341 -0.549,-0.129 -0.553,0.133C-0.55,0.395 -0.624,0.606 -0.573,0.636C-0.53,0.669 -0.348,0.457 -0.349,0.133C-0.347,-0.192 -0.529,-0.404 -0.573,-0.37" style="fill:rgb(26,46,53);fill-rule:nonzero;"/>
        </g>
        <g transform="matrix(0.117784,-1.63689,-1.63689,-0.117784,458.864,552.544)">
            <path d="M-0.271,-0.252C-0.328,-0.252 -0.374,-0.13 -0.373,0.02C-0.373,0.17 -0.328,0.292 -0.271,0.292C-0.214,0.292 -0.168,0.17 -0.17,0.02C-0.169,-0.13 -0.214,-0.252 -0.271,-0.252" style="fill:rgb(26,46,53);fill-rule:nonzero;"/>
        </g>
        <g transform="matrix(1.64112,0,0,1.64112,617.146,370.681)">
            <path d="M0,-13.388L-3.581,-31.348C-6.22,-46.048 -26.827,-47.06 -26.827,-47.06L-43,-47.323C-43,-47.323 -54.99,-48.934 -62.39,-40.592C-70.048,-31.957 -79.455,-21.754 -79.455,-21.754L-72.269,-3.681L-55.254,-17.722C-55.254,-17.722 -57.536,-14.014 -57.536,-9.554C-57.536,-4.766 -52.541,-2.558 -52.541,-2.558L-51.01,12.016L-56.088,35.546L-3.275,33.428C-4.307,24.897 -7.029,17.592 -11.062,11.236L-10.08,-13.388L0,-13.388Z" style="fill:rgb(255,79,91);fill-rule:nonzero;"/>
        </g>
        <g transform="matrix(1.64112,0,0,1.64112,579.942,364.082)">
            <path d="M0,-29.499C0.036,-29.504 0.133,-29.095 0.276,-28.351C0.443,-27.499 0.65,-26.445 0.895,-25.2C1.432,-22.423 2.132,-18.802 2.906,-14.799C3.678,-10.732 4.344,-7.044 4.77,-4.363C4.982,-3.022 5.136,-1.935 5.225,-1.181C5.308,-0.425 5.337,-0.005 5.301,0C5.266,0.005 5.169,-0.405 5.024,-1.148C4.857,-2 4.651,-3.053 4.407,-4.299C3.87,-7.076 3.169,-10.697 2.395,-14.702C1.624,-18.768 0.958,-22.455 0.532,-25.136C0.319,-26.477 0.166,-27.564 0.076,-28.319C-0.007,-29.075 -0.035,-29.494 0,-29.499" style="fill:rgb(26,46,53);fill-rule:nonzero;"/>
        </g>
        <g transform="matrix(-0.00571875,-1.64111,-1.64111,0.00571875,601.454,331.208)">
            <path d="M-9.757,-9.791C-9.901,-9.792 -10.017,-5.422 -10.018,-0.034C-10.017,5.356 -9.902,9.724 -9.757,9.723C-9.614,9.724 -9.497,5.355 -9.496,-0.034C-9.497,-5.423 -9.612,-9.792 -9.757,-9.791" style="fill:rgb(26,46,53);fill-rule:nonzero;"/>
        </g>
        <g transform="matrix(1.64112,0,0,1.64112,620.886,374.398)">
            <path d="M0,-0.322C-1.044,-8.949 -2.432,-16.303 -2.432,-16.303L-21.13,-16.303C-21.13,-16.303 -18.808,-5.358 -19.327,-2.82C-19.779,-0.61 -56.015,0.856 -65.458,1.003C-66.019,0.58 -66.836,1.29 -67.563,0.657C-68.206,0.098 -68.746,-0.576 -69.169,-1.324C-69.683,-2.23 -70.318,-3.465 -70.461,-4.25C-70.639,-5.221 -71.875,-5.469 -72.253,-4.661C-72.631,-3.851 -72.206,-1.16 -70.412,1.441C-68.617,4.041 -73.321,2.69 -75.043,2.229C-76.766,1.769 -82.16,0.6 -82.717,1.031C-83.533,1.662 -83.021,2.677 -81.291,3.097C-79.539,3.521 -74.456,5.148 -74.735,6.069C-75.01,6.977 -83.749,4.508 -83.749,4.508C-83.749,4.508 -85.534,3.67 -85.891,4.724C-86.535,6.624 -77.059,8.547 -76.153,8.707C-75.523,8.819 -75.792,9.83 -76.462,9.675C-77.152,9.513 -85.122,7.004 -85.796,8.933C-86.313,10.411 -78.016,10.588 -76.642,12.051C-75.269,13.514 -82.923,11.261 -83.361,12.696C-83.524,13.23 -80.34,13.477 -75.764,14.119C-71.483,14.722 -63.523,14.667 -61.617,14.623C-51.002,15.204 -13.482,15.981 -5.475,15.414C3.863,14.754 0.359,2.641 0,-0.322" style="fill:rgb(255,191,157);fill-rule:nonzero;"/>
        </g>
        <g transform="matrix(1.64112,0,0,1.64112,523.37,322.541)">
            <path d="M0,16.454C-0.067,16.43 0.194,15.511 0.634,14.027C0.857,13.286 1.128,12.404 1.467,11.434C1.637,10.949 1.825,10.442 2.04,9.923C2.158,9.642 2.305,9.402 2.38,9.169C2.455,8.933 2.483,8.666 2.476,8.393C2.461,7.847 2.322,7.285 2.225,6.735C2.124,6.194 2.026,5.668 1.931,5.158C1.764,4.199 1.608,3.304 1.464,2.48C1.214,0.954 1.094,0.003 1.165,-0.011C1.235,-0.025 1.482,0.901 1.826,2.41C2.003,3.226 2.196,4.114 2.402,5.065C2.507,5.574 2.614,6.098 2.725,6.638C2.827,7.182 2.976,7.745 2.997,8.381C3.004,8.697 2.974,9.018 2.872,9.331C2.765,9.645 2.607,9.89 2.51,10.121C2.293,10.627 2.099,11.123 1.918,11.599C1.583,12.511 1.271,13.361 0.984,14.143C0.454,15.598 0.067,16.479 0,16.454" style="fill:rgb(26,46,53);fill-rule:nonzero;"/>
        </g>
        <g transform="matrix(1.64112,0,0,1.64112,559.134,302.73)">
            <path d="M0,-39.682C1.449,-37.826 2.98,-35.696 2.692,-33.358C2.441,-31.316 0.811,-29.501 1.085,-27.462C1.4,-25.111 4.129,-23.578 4.265,-21.21C4.377,-19.245 2.687,-17.728 1.49,-16.165C-0.23,-13.918 -1.09,-10.992 -0.692,-8.19C-0.295,-5.388 1.403,-2.765 3.879,-1.393C6.354,-0.022 9.565,0 11.981,-1.474C14.219,-2.839 15.602,-5.269 16.459,-7.746C17.573,-10.965 17.88,-14.766 15.963,-17.582C15.187,-18.722 14.054,-19.707 13.803,-21.063C13.484,-22.785 14.705,-24.409 14.898,-26.15C15.157,-28.479 13.549,-30.608 11.763,-32.126C9.977,-33.644 7.885,-34.882 6.559,-36.816" style="fill:rgb(26,46,53);fill-rule:nonzero;"/>
        </g>
        <g transform="matrix(1.64112,0,0,1.64112,119.814,-95.4825)">
            <g opacity="0.3">
                <g transform="matrix(1,0,0,1,280.989,284.682)">
                    <path d="M0,-29.282C0.655,-19.265 1.045,-10.037 1.238,0C2.736,-0.17 4.094,-0.47 5.007,-1.185C5.524,-5.464 2.282,-18.49 0,-29.282" style="fill-rule:nonzero;"/>
                </g>
            </g>
        </g>
        <g transform="matrix(1.57824,0.449935,0.449935,-1.57824,540.012,315.689)">
            <path d="M0.622,-0.085C0.483,-0.106 0.216,0.896 0.219,2.163C0.216,3.432 0.483,4.435 0.622,4.413C0.767,4.391 0.737,3.389 0.739,2.164C0.737,0.939 0.768,-0.064 0.622,-0.085" style="fill:rgb(250,250,250);fill-rule:nonzero;"/>
        </g>
        <g transform="matrix(1.12853,-1.19152,-1.19152,-1.12853,524.234,313.981)">
            <path d="M-1.224,-0.544C-1.363,-0.567 -1.599,0.187 -1.598,1.149C-1.6,2.111 -1.364,2.866 -1.224,2.843C-1.08,2.82 -1.079,2.066 -1.077,1.149C-1.078,0.233 -1.079,-0.521 -1.224,-0.544" style="fill:rgb(250,250,250);fill-rule:nonzero;"/>
        </g>
        <g transform="matrix(1.64112,0,0,1.64112,506.865,337.054)">
            <path d="M0,-4.505C-0.041,-4.5 -0.089,-4.595 -0.142,-4.776L0.086,-4.793C0.197,-4.364 0.279,-3.405 0.086,-2.32C-0.169,-0.793 -0.837,0.293 -0.957,0.226C-1.094,0.163 -0.667,-0.964 -0.427,-2.409C-0.244,-3.44 -0.205,-4.348 -0.142,-4.78L0.086,-4.798C0.07,-4.61 0.041,-4.509 0,-4.505" style="fill:rgb(250,250,250);fill-rule:nonzero;"/>
        </g>
        <g transform="matrix(0.595329,-1.52934,-1.52934,-0.595329,505.187,342.634)">
            <path d="M-2.098,-1.435C-2.242,-1.435 -2.358,-0.427 -2.359,0.816C-2.359,2.059 -2.243,3.067 -2.098,3.067C-1.954,3.067 -1.838,2.06 -1.838,0.816C-1.838,-0.427 -1.954,-1.435 -2.098,-1.435" style="fill:rgb(250,250,250);fill-rule:nonzero;"/>
        </g>
        <g transform="matrix(1.56697,0.487741,0.487741,-1.56697,519.32,336.854)">
            <path d="M0.572,-0.084C0.433,-0.106 0.196,0.744 0.197,1.821C0.196,2.898 0.433,3.747 0.572,3.728C0.717,3.707 0.717,2.858 0.719,1.821C0.717,0.785 0.717,-0.064 0.572,-0.084" style="fill:rgb(250,250,250);fill-rule:nonzero;"/>
        </g>
        <g transform="matrix(-0.0781749,-1.63926,-1.63926,0.0781749,531.945,297.264)">
            <path d="M-1.698,-1.781C-1.843,-1.782 -1.959,-1.02 -1.959,-0.081C-1.959,0.859 -1.843,1.619 -1.698,1.619C-1.555,1.62 -1.438,0.858 -1.438,-0.081C-1.438,-1.02 -1.554,-1.781 -1.698,-1.781" style="fill:rgb(250,250,250);fill-rule:nonzero;"/>
        </g>
        <g transform="matrix(1.47102,-0.727592,-0.727592,-1.47102,539.183,330.963)">
            <path d="M-0.902,-0.229C-1.028,-0.284 -1.491,0.62 -1.487,1.844C-1.491,3.067 -1.028,3.972 -0.902,3.916C-0.758,3.867 -0.973,2.963 -0.967,1.843C-0.973,0.724 -0.76,-0.18 -0.902,-0.229" style="fill:rgb(250,250,250);fill-rule:nonzero;"/>
        </g>
        <g transform="matrix(-1.06911,-1.2451,-1.2451,1.06911,560.755,326.956)">
            <path d="M-1.686,-3.707C-1.828,-3.718 -2.02,-2.715 -2.018,-1.464C-2.018,-0.213 -1.827,0.789 -1.686,0.779C-1.541,0.769 -1.498,-0.235 -1.497,-1.465C-1.498,-2.692 -1.54,-3.696 -1.686,-3.707" style="fill:rgb(250,250,250);fill-rule:nonzero;"/>
        </g>
        <g transform="matrix(-0.977023,-1.3186,-1.3186,0.977023,547.736,321.429)">
            <path d="M-1.395,-2.772C-1.539,-2.772 -1.655,-1.994 -1.656,-1.035C-1.655,-0.075 -1.54,0.703 -1.395,0.702C-1.251,0.703 -1.135,-0.076 -1.135,-1.034C-1.135,-1.994 -1.251,-2.772 -1.395,-2.772" style="fill:rgb(250,250,250);fill-rule:nonzero;"/>
        </g>
        <g transform="matrix(1.06877,-1.2454,-1.2454,-1.06877,560.688,305.613)">
            <path d="M-1.803,-0.853C-1.937,-0.886 -2.295,0.171 -2.292,1.531C-2.295,2.89 -1.937,3.946 -1.803,3.914C-1.657,3.882 -1.774,2.826 -1.771,1.53C-1.776,0.235 -1.657,-0.821 -1.803,-0.853" style="fill:rgb(250,250,250);fill-rule:nonzero;"/>
        </g>
        <g transform="matrix(-0.991331,-1.30788,-1.30788,0.991331,571.247,305.155)">
            <path d="M-1.427,-2.874C-1.571,-2.874 -1.687,-2.072 -1.687,-1.082C-1.687,-0.092 -1.571,0.709 -1.427,0.708C-1.283,0.708 -1.166,-0.093 -1.167,-1.082C-1.166,-2.072 -1.284,-2.874 -1.427,-2.874" style="fill:rgb(250,250,250);fill-rule:nonzero;"/>
        </g>
        <g transform="matrix(1.60911,0.322583,0.322583,-1.60911,589.618,310.528)">
            <path d="M0.42,-0.051C0.274,-0.027 0.318,0.932 0.314,2.103C0.318,3.275 0.274,4.234 0.42,4.258C0.556,4.283 0.837,3.324 0.835,2.104C0.838,0.883 0.557,-0.077 0.42,-0.051" style="fill:rgb(250,250,250);fill-rule:nonzero;"/>
        </g>
        <g transform="matrix(1.10837,-1.21029,-1.21029,-1.10837,593.788,323.399)">
            <path d="M-1.852,-0.816C-1.996,-0.815 -2.113,0.309 -2.113,1.696C-2.114,3.083 -1.997,4.208 -1.852,4.208C-1.709,4.207 -1.592,3.083 -1.592,1.696C-1.592,0.309 -1.709,-0.816 -1.852,-0.816" style="fill:rgb(250,250,250);fill-rule:nonzero;"/>
        </g>
        <g transform="matrix(1.50989,0.643063,0.643063,-1.50989,602.796,319.121)">
            <path d="M0.82,-0.167C0.677,-0.167 0.56,0.77 0.56,1.926C0.56,3.082 0.677,4.02 0.82,4.02C0.964,4.02 1.082,3.083 1.082,1.926C1.081,0.771 0.965,-0.168 0.82,-0.167" style="fill:rgb(250,250,250);fill-rule:nonzero;"/>
        </g>
        <g transform="matrix(1.43932,0.788447,0.788447,-1.43932,603.026,337.491)">
            <path d="M1.204,-0.308C1.06,-0.308 0.944,0.813 0.944,2.196C0.944,3.58 1.06,4.702 1.204,4.702C1.348,4.701 1.464,3.58 1.464,2.196C1.464,0.813 1.347,-0.308 1.204,-0.308" style="fill:rgb(250,250,250);fill-rule:nonzero;"/>
        </g>
        <g transform="matrix(1.31111,-0.987051,-0.987051,-1.31111,594.759,339.901)">
            <path d="M-1.328,-0.444C-1.472,-0.445 -1.589,0.544 -1.589,1.763C-1.589,2.984 -1.472,3.972 -1.328,3.972C-1.184,3.972 -1.067,2.984 -1.067,1.764C-1.068,0.544 -1.185,-0.444 -1.328,-0.444" style="fill:rgb(250,250,250);fill-rule:nonzero;"/>
        </g>
        <g transform="matrix(1.36666,0.908588,0.908588,-1.36666,570.665,347.609)">
            <path d="M1.751,-0.521C1.613,-0.541 1.3,0.863 1.303,2.629C1.3,4.397 1.614,5.802 1.751,5.781C1.899,5.762 1.821,4.356 1.824,2.63C1.821,0.903 1.898,-0.501 1.751,-0.521" style="fill:rgb(250,250,250);fill-rule:nonzero;"/>
        </g>
        <g transform="matrix(1.47623,-0.71695,-0.71695,-1.47623,559.123,347.16)">
            <path d="M-1.177,-0.271C-1.321,-0.27 -1.438,0.937 -1.437,2.424C-1.438,3.912 -1.321,5.117 -1.177,5.118C-1.034,5.118 -0.917,3.912 -0.917,2.423C-0.917,0.936 -1.034,-0.27 -1.177,-0.271" style="fill:rgb(250,250,250);fill-rule:nonzero;"/>
        </g>
        <g transform="matrix(-1.08032,-1.23539,-1.23539,1.08032,530.077,346.599)">
            <path d="M-2.266,-4.992C-2.409,-4.994 -2.525,-3.644 -2.526,-1.982C-2.525,-0.319 -2.41,1.029 -2.266,1.029C-2.122,1.029 -2.006,-0.319 -2.005,-1.982C-2.004,-3.644 -2.122,-4.992 -2.266,-4.992" style="fill:rgb(250,250,250);fill-rule:nonzero;"/>
        </g>
        <g transform="matrix(1.16485,-1.15603,-1.15603,-1.16485,547.24,361.322)">
            <path d="M-1.97,-0.798C-2.118,-0.777 -2.046,0.467 -2.049,1.991C-2.047,3.517 -2.117,4.761 -1.97,4.783C-1.834,4.805 -1.526,3.562 -1.529,1.992C-1.526,0.423 -1.834,-0.821 -1.97,-0.798" style="fill:rgb(250,250,250);fill-rule:nonzero;"/>
        </g>
        <g transform="matrix(1.4208,0.821347,0.821347,-1.4208,557.477,363.555)">
            <path d="M1.337,-0.348C1.203,-0.38 0.835,0.797 0.838,2.303C0.834,3.811 1.203,4.987 1.337,4.955C1.485,4.926 1.354,3.748 1.359,2.303C1.354,0.857 1.485,-0.319 1.337,-0.348" style="fill:rgb(250,250,250);fill-rule:nonzero;"/>
        </g>
        <g transform="matrix(1.05236,-1.25929,-1.25929,-1.05236,578.707,363.2)">
            <path d="M-2.311,-1.073C-2.455,-1.065 -2.571,0.283 -2.572,1.937C-2.572,3.591 -2.455,4.939 -2.311,4.947C-2.167,4.955 -2.051,3.608 -2.051,1.937C-2.05,0.266 -2.168,-1.082 -2.311,-1.073" style="fill:rgb(250,250,250);fill-rule:nonzero;"/>
        </g>
        <g transform="matrix(0.973912,-1.3209,-1.3209,-0.973912,576.548,315.049)">
            <path d="M-1.86,-0.959C-1.998,-0.983 -2.289,0.046 -2.288,1.354C-2.29,2.663 -1.998,3.692 -1.86,3.667C-1.714,3.643 -1.769,2.613 -1.766,1.354C-1.77,0.095 -1.714,-0.934 -1.86,-0.959" style="fill:rgb(250,250,250);fill-rule:nonzero;"/>
        </g>
        <g transform="matrix(-0.971754,-1.32249,-1.32249,0.971754,543.156,403.458)">
            <path d="M-1.726,-3.29C-1.872,-3.253 -1.742,-2.339 -1.747,-1.221C-1.742,-0.1 -1.871,0.813 -1.726,0.851C-1.594,0.891 -1.223,-0.023 -1.227,-1.22C-1.223,-2.417 -1.594,-3.331 -1.726,-3.29" style="fill:rgb(250,250,250);fill-rule:nonzero;"/>
        </g>
        <g transform="matrix(1.53989,-0.567473,-0.567473,-1.53989,570.219,409.968)">
            <path d="M-0.824,-0.147C-0.968,-0.147 -1.084,0.92 -1.084,2.236C-1.084,3.552 -0.968,4.619 -0.824,4.619C-0.68,4.618 -0.564,3.552 -0.564,2.235C-0.564,0.92 -0.68,-0.147 -0.824,-0.147" style="fill:rgb(250,250,250);fill-rule:nonzero;"/>
        </g>
        <g transform="matrix(-1.18604,-1.13428,-1.13428,1.18604,582.732,406.442)">
            <path d="M-1.58,-3.932C-1.724,-3.931 -1.84,-2.909 -1.839,-1.648C-1.839,-0.387 -1.722,0.634 -1.58,0.634C-1.435,0.635 -1.319,-0.388 -1.319,-1.648C-1.318,-2.908 -1.435,-3.932 -1.58,-3.932" style="fill:rgb(250,250,250);fill-rule:nonzero;"/>
        </g>
        <g transform="matrix(0.32881,-1.60785,-1.60785,-0.32881,602.201,409.954)">
            <path d="M-2.429,-1.536C-2.561,-1.46 -2.096,-0.537 -2.109,0.684C-2.096,1.906 -2.561,2.83 -2.429,2.906C-2.328,2.999 -1.582,2.076 -1.588,0.685C-1.582,-0.707 -2.328,-1.63 -2.429,-1.536" style="fill:rgb(250,250,250);fill-rule:nonzero;"/>
        </g>
        <g transform="matrix(1.64112,0,0,1.64112,612.032,527.185)">
            <path d="M0,-64.296C0,-64.296 -69.06,-78.763 -75.747,-75.596C-82.433,-72.428 -113.267,3.786 -113.267,3.786L-88.442,14.467L-61.724,-50.293C-61.724,-50.293 -13.374,-32.633 -4.928,-34.388C3.519,-36.142 0,-64.296 0,-64.296" style="fill:rgb(55,90,100);fill-rule:nonzero;"/>
        </g>
        <g transform="matrix(1.64112,0,0,1.64112,561.376,617.037)">
            <path d="M0,-114.984C-1.056,-114.631 -41.004,-98.211 -43.819,-92.931C-46.635,-87.652 -39.718,0 -39.718,0L-16.997,0L-18.404,-77.903L25.938,-89.138L0,-114.984Z" style="fill:rgb(55,90,100);fill-rule:nonzero;"/>
        </g>
        <g transform="matrix(1.64112,0,0,1.64112,604.324,440.222)">
            <path d="M0,18.78C-0.003,18.798 -0.229,18.77 -0.654,18.7C-1.133,18.615 -1.749,18.506 -2.514,18.371C-4.125,18.074 -6.452,17.616 -9.319,17.006C-15.054,15.795 -22.948,13.965 -31.551,11.499C-35.85,10.254 -39.912,8.956 -43.579,7.695C-47.233,6.395 -50.509,5.178 -53.206,4.024C-54.565,3.474 -55.775,2.928 -56.835,2.447C-57.901,1.975 -58.809,1.55 -59.54,1.176C-60.233,0.827 -60.792,0.546 -61.226,0.327C-61.609,0.128 -61.806,0.014 -61.798,-0.001C-61.79,-0.018 -61.577,0.063 -61.18,0.232C-60.736,0.427 -60.164,0.68 -59.454,0.993C-58.711,1.337 -57.792,1.735 -56.718,2.18C-55.649,2.636 -54.432,3.156 -53.067,3.683C-50.358,4.792 -47.077,5.969 -43.424,7.242C-39.755,8.474 -35.697,9.756 -31.406,10.999C-22.819,13.46 -14.949,15.344 -9.24,16.646C-6.43,17.28 -4.133,17.798 -2.473,18.172C-1.717,18.346 -1.106,18.488 -0.634,18.597C-0.215,18.7 0.004,18.762 0,18.78" style="fill:rgb(26,46,53);fill-rule:nonzero;"/>
        </g>
        <g transform="matrix(1.64112,0,0,1.64112,489.479,452.901)">
            <path d="M0,27.219C-0.036,27.222 -0.109,26.754 -0.21,25.907C-0.311,24.955 -0.437,23.75 -0.589,22.312C-0.734,20.757 -0.901,18.956 -1.086,16.976C-1.248,14.977 -1.532,12.723 -1.096,10.366C-0.673,7.989 0.712,6.021 2.221,4.655C3.738,3.262 5.378,2.376 6.765,1.732C8.162,1.09 9.332,0.682 10.139,0.403C10.948,0.128 11.402,-0.003 11.415,0.031C11.453,0.123 9.658,0.748 6.925,2.064C5.574,2.741 3.993,3.643 2.548,5.005C1.105,6.351 -0.184,8.213 -0.584,10.464C-1.003,12.709 -0.747,14.931 -0.607,16.936C-0.465,18.92 -0.335,20.724 -0.223,22.282C-0.137,23.725 -0.065,24.935 -0.008,25.89C0.031,26.742 0.036,27.216 0,27.219" style="fill:rgb(26,46,53);fill-rule:nonzero;"/>
        </g>
        <g transform="matrix(-0.661103,1.50207,1.50207,0.661103,530.157,483.896)">
            <path d="M2.69,-4.121C2.546,-4.121 2.43,-2.805 2.43,-1.183C2.43,0.44 2.546,1.755 2.69,1.755C2.833,1.755 2.95,0.44 2.951,-1.183C2.951,-2.806 2.834,-4.121 2.69,-4.121" style="fill:rgb(26,46,53);fill-rule:nonzero;"/>
        </g>
        <g transform="matrix(-1.30944,0.989272,0.989272,1.30944,533.512,486.885)">
            <path d="M1.848,-5.677C1.7,-5.64 1.957,-4.255 1.951,-2.539C1.957,-0.824 1.7,0.561 1.848,0.598C1.977,0.639 2.476,-0.746 2.471,-2.539C2.477,-4.333 1.976,-5.717 1.848,-5.677" style="fill:rgb(26,46,53);fill-rule:nonzero;"/>
        </g>
        <g transform="matrix(1.64112,0,0,1.64112,539.79,500.604)">
            <path d="M0,-8.178C0.017,-8.166 -0.066,-7.99 -0.35,-7.821C-0.627,-7.642 -1.103,-7.522 -1.667,-7.509C-2.227,-7.481 -2.896,-7.569 -3.555,-7.46C-4.232,-7.373 -4.687,-6.83 -4.684,-6.014C-4.71,-2.686 -4.819,0.056 -4.967,0.05C-5.106,0.043 -5.231,-2.657 -5.204,-6.044C-5.18,-6.477 -5.091,-6.969 -4.775,-7.335C-4.477,-7.708 -4.02,-7.882 -3.633,-7.934C-2.846,-8.029 -2.201,-7.893 -1.664,-7.877C-0.57,-7.766 -0.052,-8.234 0,-8.178" style="fill:rgb(26,46,53);fill-rule:nonzero;"/>
        </g>
        <g transform="matrix(1.64112,0,0,1.64112,119.814,-95.4825)">
            <g opacity="0.3">
                <g transform="matrix(0.99679,0.0800608,0.0800608,-0.99679,250.6,301.485)">
                    <path d="M0.009,-1.887L47.236,-1.887L44.81,3.198L0.296,0.273L0.009,-1.887Z" style="fill-rule:nonzero;"/>
                </g>
            </g>
        </g>
        <g transform="matrix(1.64112,0,0,1.64112,739.932,628.931)">
            <path d="M0,-148.379L-277.495,-148.379L-277.495,-140.969L-262.652,-140.969L-270.303,-0.23L-266.079,0L-258.415,-140.969L-15.136,-140.969L-8.608,-0.114L-4.373,-0.114L-10.9,-140.969L0,-140.969L0,-148.379Z" style="fill:rgb(26,46,53);fill-rule:nonzero;"/>
        </g>
        <g transform="matrix(1.64112,0,0,1.64112,417.355,387.363)">
            <path d="M0,-44.942L15.388,0.024L85.063,0.024L84.55,-2.292L56.375,-3.163L43.396,-44.966L0,-44.942Z" style="fill:rgb(26,46,53);fill-rule:nonzero;"/>
        </g>
        <g transform="matrix(-0.424206,-1.58535,-1.58535,0.424206,461.563,345.589)">
            <path d="M-2.595,-3.382C-4.494,-3.35 -6.032,-2.122 -6.032,-0.637C-6.033,0.846 -4.493,2.023 -2.595,1.992C-0.696,1.96 0.843,0.731 0.843,-0.753C0.842,-2.236 -0.696,-3.414 -2.595,-3.382" style="fill:white;fill-rule:nonzero;"/>
        </g>
    </g>
</svg>
